# Created by Open3D 
# object name: face_00003
# number of vertices: 91
# number of triangles: 90
v 0.988984 0.796524 0.545176 0.96 0.672 0.924112
v 0.990736 0.20207 0.545937 0.96 0.672 0.924112
v 0.0137627 0.196101 0.54809 0.96 0.672 0.924112
v 0.0135812 0.786556 0.547331 0.96 0.672 0.924112
v 0.988984 0.796524 0.545176 0.96 0.672 0.924112
v 0.815749 0.504857 0.545932 0.96 0.672 0.924112
v 0.814988 0.515009 0.54592 0.96 0.672 0.924112
v 0.812723 0.524935 0.545912 0.96 0.672 0.924112
v 0.809003 0.534412 0.545908 0.96 0.672 0.924112
v 0.803913 0.543228 0.545908 0.96 0.672 0.924112
v 0.797566 0.551188 0.545912 0.96 0.672 0.924112
v 0.790103 0.558113 0.545919 0.96 0.672 0.924112
v 0.781691 0.563847 0.545931 0.96 0.672 0.924112
v 0.772519 0.568265 0.545945 0.96 0.672 0.924112
v 0.76279 0.571266 0.545963 0.96 0.672 0.924112
v 0.752723 0.572783 0.545983 0.96 0.672 0.924112
v 0.742543 0.572783 0.546005 0.96 0.672 0.924112
v 0.732476 0.571266 0.546029 0.96 0.672 0.924112
v 0.722748 0.568265 0.546054 0.96 0.672 0.924112
v 0.713575 0.563848 0.54608 0.96 0.672 0.924112
v 0.705164 0.558113 0.546106 0.96 0.672 0.924112
v 0.697701 0.551188 0.546131 0.96 0.672 0.924112
v 0.691353 0.543229 0.546155 0.96 0.672 0.924112
v 0.686263 0.534412 0.546178 0.96 0.672 0.924112
v 0.682543 0.524935 0.546198 0.96 0.672 0.924112
v 0.680278 0.51501 0.546216 0.96 0.672 0.924112
v 0.679517 0.504858 0.546231 0.96 0.672 0.924112
v 0.680278 0.494705 0.546242 0.96 0.672 0.924112
v 0.682543 0.48478 0.54625 0.96 0.672 0.924112
v 0.686263 0.475303 0.546254 0.96 0.672 0.924112
v 0.691353 0.466486 0.546254 0.96 0.672 0.924112
v 0.697701 0.458527 0.546251 0.96 0.672 0.924112
v 0.705164 0.451602 0.546243 0.96 0.672 0.924112
v 0.713575 0.445867 0.546232 0.96 0.672 0.924112
v 0.722748 0.44145 0.546217 0.96 0.672 0.924112
v 0.732476 0.438449 0.5462 0.96 0.672 0.924112
v 0.742543 0.436932 0.54618 0.96 0.672 0.924112
v 0.752723 0.436932 0.546157 0.96 0.672 0.924112
v 0.76279 0.438449 0.546133 0.96 0.672 0.924112
v 0.772519 0.44145 0.546108 0.96 0.672 0.924112
v 0.781691 0.445867 0.546082 0.96 0.672 0.924112
v 0.790103 0.451602 0.546056 0.96 0.672 0.924112
v 0.797566 0.458527 0.546031 0.96 0.672 0.924112
v 0.803913 0.466486 0.546007 0.96 0.672 0.924112
v 0.809003 0.475303 0.545984 0.96 0.672 0.924112
v 0.812723 0.48478 0.545964 0.96 0.672 0.924112
v 0.814988 0.494705 0.545946 0.96 0.672 0.924112
v 0.815749 0.504857 0.545932 0.96 0.672 0.924112
v 0.310455 0.501438 0.547046 0.96 0.672 0.924112
v 0.309701 0.511492 0.547035 0.96 0.672 0.924112
v 0.307458 0.521322 0.547027 0.96 0.672 0.924112
v 0.303774 0.530708 0.547023 0.96 0.672 0.924112
v 0.298732 0.53944 0.547023 0.96 0.672 0.924112
v 0.292446 0.547324 0.547026 0.96 0.672 0.924112
v 0.285055 0.554182 0.547034 0.96 0.672 0.924112
v 0.276724 0.559862 0.547045 0.96 0.672 0.924112
v 0.267639 0.564236 0.547059 0.96 0.672 0.924112
v 0.258004 0.567208 0.547076 0.96 0.672 0.924112
v 0.248034 0.568711 0.547096 0.96 0.672 0.924112
v 0.237951 0.568711 0.547118 0.96 0.672 0.924112
v 0.227981 0.567209 0.547142 0.96 0.672 0.924112
v 0.218346 0.564237 0.547167 0.96 0.672 0.924112
v 0.209262 0.559862 0.547193 0.96 0.672 0.924112
v 0.200931 0.554182 0.547218 0.96 0.672 0.924112
v 0.193539 0.547324 0.547244 0.96 0.672 0.924112
v 0.187253 0.539441 0.547267 0.96 0.672 0.924112
v 0.182211 0.530709 0.54729 0.96 0.672 0.924112
v 0.178528 0.521323 0.54731 0.96 0.672 0.924112
v 0.176284 0.511493 0.547328 0.96 0.672 0.924112
v 0.175531 0.501438 0.547342 0.96 0.672 0.924112
v 0.176284 0.491383 0.547353 0.96 0.672 0.924112
v 0.178528 0.481553 0.547361 0.96 0.672 0.924112
v 0.182211 0.472167 0.547365 0.96 0.672 0.924112
v 0.187253 0.463435 0.547365 0.96 0.672 0.924112
v 0.193539 0.455552 0.547362 0.96 0.672 0.924112
v 0.200931 0.448694 0.547354 0.96 0.672 0.924112
v 0.209262 0.443014 0.547343 0.96 0.672 0.924112
v 0.218346 0.438639 0.547329 0.96 0.672 0.924112
v 0.227981 0.435667 0.547312 0.96 0.672 0.924112
v 0.237951 0.434164 0.547292 0.96 0.672 0.924112
v 0.248034 0.434164 0.547269 0.96 0.672 0.924112
v 0.258004 0.435667 0.547246 0.96 0.672 0.924112
v 0.267639 0.438639 0.547221 0.96 0.672 0.924112
v 0.276724 0.443014 0.547195 0.96 0.672 0.924112
v 0.285055 0.448694 0.547169 0.96 0.672 0.924112
v 0.292446 0.455552 0.547144 0.96 0.672 0.924112
v 0.298732 0.463435 0.54712 0.96 0.672 0.924112
v 0.303774 0.472167 0.547098 0.96 0.672 0.924112
v 0.307458 0.481553 0.547078 0.96 0.672 0.924112
v 0.309701 0.491383 0.54706 0.96 0.672 0.924112
v 0.310455 0.501438 0.547046 0.96 0.672 0.924112
f 1 6 2
f 19 1 4
f 3 70 4
f 18 17 1
f 19 18 1
f 30 89 88
f 6 47 2
f 44 43 2
f 45 44 2
f 40 39 2
f 41 40 2
f 78 77 3
f 81 80 3
f 7 6 1
f 11 10 1
f 10 9 1
f 15 14 1
f 14 13 1
f 31 30 88
f 29 90 89
f 30 29 89
f 83 35 84
f 35 34 84
f 35 83 3
f 35 3 2
f 34 85 84
f 77 76 3
f 46 45 2
f 47 46 2
f 38 37 2
f 39 38 2
f 43 42 2
f 42 41 2
f 80 79 3
f 79 78 3
f 83 82 3
f 82 81 3
f 9 8 1
f 8 7 1
f 17 16 1
f 16 15 1
f 12 11 1
f 13 12 1
f 87 31 88
f 31 87 32
f 87 86 32
f 29 28 90
f 90 28 49
f 49 28 27
f 37 36 2
f 36 35 2
f 33 85 34
f 85 33 86
f 86 33 32
f 75 74 3
f 76 75 3
f 71 70 3
f 72 71 3
f 74 73 3
f 73 72 3
f 56 21 20
f 68 67 4
f 67 66 4
f 60 59 4
f 64 63 4
f 63 62 4
f 24 52 25
f 54 53 23
f 53 24 23
f 24 53 52
f 51 26 25
f 52 51 25
f 22 54 23
f 57 20 19
f 57 56 20
f 57 19 4
f 56 55 21
f 55 22 21
f 22 55 54
f 70 69 4
f 69 68 4
f 65 64 4
f 66 65 4
f 62 61 4
f 61 60 4
f 51 50 26
f 26 50 27
f 50 49 27
f 59 58 4
f 58 57 4
