# Created by Open3D 
# object name: face_00001
# number of vertices: 91
# number of triangles: 90
v 0.997173 0.206919 0.450405 0.672 0.756037 0.96
v 0.995309 0.80088 0.451308 0.672 0.756037 0.96
v 0.00239178 0.790571 0.457041 0.672 0.756037 0.96
v 0.0023694 0.200663 0.456155 0.672 0.756037 0.96
v 0.997173 0.206919 0.450405 0.672 0.756037 0.96
v 0.813778 0.502074 0.45191 0.672 0.756037 0.96
v 0.813017 0.491922 0.451899 0.672 0.756037 0.96
v 0.810752 0.481996 0.451897 0.672 0.756037 0.96
v 0.807033 0.47252 0.451905 0.672 0.756037 0.96
v 0.801942 0.463703 0.451921 0.672 0.756037 0.96
v 0.795595 0.455743 0.451946 0.672 0.756037 0.96
v 0.788132 0.448819 0.451979 0.672 0.756037 0.96
v 0.779721 0.443084 0.452019 0.672 0.756037 0.96
v 0.770548 0.438666 0.452065 0.672 0.756037 0.96
v 0.76082 0.435665 0.452117 0.672 0.756037 0.96
v 0.750753 0.434148 0.452173 0.672 0.756037 0.96
v 0.740573 0.434148 0.452232 0.672 0.756037 0.96
v 0.730506 0.435665 0.452292 0.672 0.756037 0.96
v 0.720778 0.438666 0.452353 0.672 0.756037 0.96
v 0.711606 0.443083 0.452413 0.672 0.756037 0.96
v 0.703194 0.448818 0.45247 0.672 0.756037 0.96
v 0.695731 0.455742 0.452524 0.672 0.756037 0.96
v 0.689384 0.463702 0.452573 0.672 0.756037 0.96
v 0.684294 0.472518 0.452615 0.672 0.756037 0.96
v 0.680574 0.481995 0.452651 0.672 0.756037 0.96
v 0.678309 0.491921 0.452679 0.672 0.756037 0.96
v 0.677548 0.502073 0.452699 0.672 0.756037 0.96
v 0.678309 0.512225 0.45271 0.672 0.756037 0.96
v 0.680574 0.52215 0.452711 0.672 0.756037 0.96
v 0.684294 0.531627 0.452704 0.672 0.756037 0.96
v 0.689384 0.540444 0.452688 0.672 0.756037 0.96
v 0.695731 0.548404 0.452663 0.672 0.756037 0.96
v 0.703194 0.555328 0.45263 0.672 0.756037 0.96
v 0.711606 0.561063 0.45259 0.672 0.756037 0.96
v 0.720778 0.565481 0.452544 0.672 0.756037 0.96
v 0.730506 0.568481 0.452492 0.672 0.756037 0.96
v 0.740573 0.569999 0.452436 0.672 0.756037 0.96
v 0.750753 0.569999 0.452377 0.672 0.756037 0.96
v 0.76082 0.568482 0.452316 0.672 0.756037 0.96
v 0.770548 0.565481 0.452256 0.672 0.756037 0.96
v 0.779721 0.561064 0.452196 0.672 0.756037 0.96
v 0.788132 0.555329 0.452138 0.672 0.756037 0.96
v 0.795595 0.548404 0.452085 0.672 0.756037 0.96
v 0.801942 0.540445 0.452036 0.672 0.756037 0.96
v 0.807033 0.531628 0.451993 0.672 0.756037 0.96
v 0.810752 0.522152 0.451958 0.672 0.756037 0.96
v 0.813017 0.512226 0.45193 0.672 0.756037 0.96
v 0.813778 0.502074 0.45191 0.672 0.756037 0.96
v 0.311046 0.493698 0.454808 0.672 0.756037 0.96
v 0.310292 0.483643 0.454797 0.672 0.756037 0.96
v 0.308049 0.473813 0.454796 0.672 0.756037 0.96
v 0.304365 0.464427 0.454803 0.672 0.756037 0.96
v 0.299324 0.455695 0.454819 0.672 0.756037 0.96
v 0.293037 0.447812 0.454843 0.672 0.756037 0.96
v 0.285646 0.440953 0.454876 0.672 0.756037 0.96
v 0.277315 0.435273 0.454916 0.672 0.756037 0.96
v 0.268231 0.430898 0.454962 0.672 0.756037 0.96
v 0.258596 0.427926 0.455013 0.672 0.756037 0.96
v 0.248626 0.426424 0.455068 0.672 0.756037 0.96
v 0.238543 0.426423 0.455127 0.672 0.756037 0.96
v 0.228573 0.427926 0.455187 0.672 0.756037 0.96
v 0.218938 0.430898 0.455247 0.672 0.756037 0.96
v 0.209854 0.435273 0.455306 0.672 0.756037 0.96
v 0.201523 0.440953 0.455363 0.672 0.756037 0.96
v 0.194132 0.447811 0.455416 0.672 0.756037 0.96
v 0.187846 0.455694 0.455464 0.672 0.756037 0.96
v 0.182804 0.464426 0.455507 0.672 0.756037 0.96
v 0.179121 0.473812 0.455542 0.672 0.756037 0.96
v 0.176877 0.483642 0.45557 0.672 0.756037 0.96
v 0.176124 0.493696 0.455589 0.672 0.756037 0.96
v 0.176877 0.503751 0.4556 0.672 0.756037 0.96
v 0.179121 0.513581 0.455602 0.672 0.756037 0.96
v 0.182804 0.522967 0.455595 0.672 0.756037 0.96
v 0.187846 0.531699 0.455578 0.672 0.756037 0.96
v 0.194132 0.539582 0.455554 0.672 0.756037 0.96
v 0.201523 0.546441 0.455521 0.672 0.756037 0.96
v 0.209854 0.552121 0.455482 0.672 0.756037 0.96
v 0.218938 0.556496 0.455436 0.672 0.756037 0.96
v 0.228573 0.559468 0.455384 0.672 0.756037 0.96
v 0.238543 0.56097 0.455329 0.672 0.756037 0.96
v 0.248626 0.560971 0.45527 0.672 0.756037 0.96
v 0.258596 0.559468 0.455211 0.672 0.756037 0.96
v 0.268231 0.556496 0.45515 0.672 0.756037 0.96
v 0.277315 0.552121 0.455091 0.672 0.756037 0.96
v 0.285646 0.546441 0.455034 0.672 0.756037 0.96
v 0.293037 0.539583 0.454981 0.672 0.756037 0.96
v 0.299324 0.5317 0.454933 0.672 0.756037 0.96
v 0.304365 0.522968 0.454891 0.672 0.756037 0.96
v 0.308049 0.513582 0.454855 0.672 0.756037 0.96
v 0.310292 0.503752 0.454828 0.672 0.756037 0.96
v 0.311046 0.493698 0.454808 0.672 0.756037 0.96
f 6 2 1
f 57 1 4
f 35 3 2
f 19 57 56
f 57 19 1
f 37 36 2
f 36 35 2
f 7 6 1
f 8 7 1
f 11 10 1
f 16 15 1
f 15 14 1
f 12 11 1
f 20 19 56
f 17 16 1
f 46 45 2
f 44 43 2
f 45 44 2
f 38 37 2
f 41 40 2
f 35 83 3
f 26 49 27
f 58 57 4
f 61 60 4
f 69 68 4
f 64 63 4
f 9 8 1
f 10 9 1
f 14 13 1
f 13 12 1
f 19 18 1
f 18 17 1
f 6 47 2
f 47 46 2
f 40 39 2
f 39 38 2
f 43 42 2
f 42 41 2
f 50 26 25
f 50 49 26
f 60 59 4
f 59 58 4
f 63 62 4
f 62 61 4
f 67 66 4
f 68 67 4
f 66 65 4
f 65 64 4
f 34 33 84
f 83 34 84
f 34 83 35
f 49 90 27
f 86 32 31
f 76 75 3
f 77 76 3
f 90 28 27
f 28 90 89
f 29 28 89
f 32 85 33
f 86 85 32
f 33 85 84
f 52 24 23
f 51 50 25
f 24 51 25
f 51 24 52
f 53 23 22
f 53 52 23
f 73 72 3
f 72 71 3
f 3 70 4
f 71 70 3
f 70 69 4
f 74 73 3
f 75 74 3
f 83 82 3
f 82 81 3
f 80 79 3
f 81 80 3
f 79 78 3
f 78 77 3
f 88 30 29
f 88 29 89
f 21 54 22
f 54 53 22
f 30 87 31
f 88 87 30
f 87 86 31
f 55 54 21
f 55 21 20
f 55 20 56
