# Created by Open3D 
# object name: face_00002
# number of vertices: 354
# number of triangles: 439
v 0.138476 0.00855135 0.743879 0.840075 0.96 0.672
v 0.880962 0.00608474 0.749615 0.840075 0.96 0.672
v 0.385373 1.00207 0.75153 0.840075 0.96 0.672
v 0.158328 0.800655 0.748608 0.840075 0.96 0.672
v 0.384523 0.737576 0.749995 0.840075 0.96 0.672
v 0.374401 0.734698 0.7499 0.840075 0.96 0.672
v 0.36648 0.728561 0.749804 0.840075 0.96 0.672
v 0.358857 0.722057 0.749707 0.840075 0.96 0.672
v 0.35155 0.7152 0.749611 0.840075 0.96 0.672
v 0.344575 0.708005 0.749515 0.840075 0.96 0.672
v 0.337947 0.70049 0.74942 0.840075 0.96 0.672
v 0.331682 0.692669 0.749327 0.840075 0.96 0.672
v 0.325793 0.684562 0.749234 0.840075 0.96 0.672
v 0.320293 0.676185 0.749143 0.840075 0.96 0.672
v 0.315195 0.667558 0.749054 0.840075 0.96 0.672
v 0.310511 0.6587 0.748967 0.840075 0.96 0.672
v 0.306249 0.64963 0.748881 0.840075 0.96 0.672
v 0.302421 0.640369 0.748798 0.840075 0.96 0.672
v 0.299035 0.630938 0.748717 0.840075 0.96 0.672
v 0.296098 0.621358 0.748639 0.840075 0.96 0.672
v 0.293616 0.611649 0.748564 0.840075 0.96 0.672
v 0.291596 0.601834 0.748492 0.840075 0.96 0.672
v 0.290041 0.591934 0.748422 0.840075 0.96 0.672
v 0.288956 0.581973 0.748356 0.840075 0.96 0.672
v 0.288342 0.571971 0.748294 0.840075 0.96 0.672
v 0.288201 0.561951 0.748235 0.840075 0.96 0.672
v 0.288534 0.551935 0.74818 0.840075 0.96 0.672
v 0.289339 0.541947 0.748128 0.840075 0.96 0.672
v 0.290615 0.532007 0.748081 0.840075 0.96 0.672
v 0.292359 0.522139 0.748037 0.840075 0.96 0.672
v 0.294567 0.512365 0.747998 0.840075 0.96 0.672
v 0.297234 0.502705 0.747963 0.840075 0.96 0.672
v 0.300355 0.493182 0.747932 0.840075 0.96 0.672
v 0.303921 0.483817 0.747905 0.840075 0.96 0.672
v 0.307926 0.474631 0.747883 0.840075 0.96 0.672
v 0.31236 0.465645 0.747866 0.840075 0.96 0.672
v 0.317214 0.456878 0.747853 0.840075 0.96 0.672
v 0.322476 0.448349 0.747844 0.840075 0.96 0.672
v 0.328135 0.440079 0.74784 0.840075 0.96 0.672
v 0.334178 0.432085 0.747841 0.840075 0.96 0.672
v 0.340592 0.424386 0.747846 0.840075 0.96 0.672
v 0.347363 0.416998 0.747856 0.840075 0.96 0.672
v 0.354474 0.409938 0.74787 0.840075 0.96 0.672
v 0.361911 0.403221 0.747889 0.840075 0.96 0.672
v 0.369658 0.396864 0.747912 0.840075 0.96 0.672
v 0.377695 0.390879 0.74794 0.840075 0.96 0.672
v 0.386006 0.38528 0.747972 0.840075 0.96 0.672
v 0.394573 0.380081 0.748008 0.840075 0.96 0.672
v 0.403375 0.375291 0.748049 0.840075 0.96 0.672
v 0.412394 0.370923 0.748093 0.840075 0.96 0.672
v 0.421609 0.366985 0.748142 0.840075 0.96 0.672
v 0.430999 0.363487 0.748195 0.840075 0.96 0.672
v 0.440544 0.360436 0.748251 0.840075 0.96 0.672
v 0.450223 0.35784 0.748311 0.840075 0.96 0.672
v 0.460013 0.355703 0.748374 0.840075 0.96 0.672
v 0.469894 0.354031 0.748441 0.840075 0.96 0.672
v 0.479842 0.352828 0.748511 0.840075 0.96 0.672
v 0.489836 0.352095 0.748584 0.840075 0.96 0.672
v 0.499854 0.351836 0.748661 0.840075 0.96 0.672
v 0.509872 0.35205 0.748739 0.840075 0.96 0.672
v 0.519869 0.352737 0.748821 0.840075 0.96 0.672
v 0.529823 0.353895 0.748905 0.840075 0.96 0.672
v 0.539711 0.355522 0.748991 0.840075 0.96 0.672
v 0.54951 0.357614 0.749079 0.840075 0.96 0.672
v 0.5592 0.360166 0.749168 0.840075 0.96 0.672
v 0.568759 0.363173 0.74926 0.840075 0.96 0.672
v 0.578165 0.366629 0.749353 0.840075 0.96 0.672
v 0.587398 0.370525 0.749447 0.840075 0.96 0.672
v 0.596436 0.374852 0.749542 0.840075 0.96 0.672
v 0.605259 0.379601 0.749637 0.840075 0.96 0.672
v 0.613849 0.384762 0.749734 0.840075 0.96 0.672
v 0.622185 0.390323 0.74983 0.840075 0.96 0.672
v 0.630249 0.396271 0.749927 0.840075 0.96 0.672
v 0.638023 0.402593 0.750024 0.840075 0.96 0.672
v 0.645491 0.409276 0.75012 0.840075 0.96 0.672
v 0.652634 0.416303 0.750216 0.840075 0.96 0.672
v 0.659437 0.42366 0.750311 0.840075 0.96 0.672
v 0.665885 0.431331 0.750406 0.840075 0.96 0.672
v 0.495789 0.776063 0.751079 0.840075 0.96 0.672
v 0.485779 0.775613 0.750999 0.840075 0.96 0.672
v 0.475801 0.77469 0.750917 0.840075 0.96 0.672
v 0.465877 0.773297 0.750832 0.840075 0.96 0.672
v 0.456031 0.771437 0.750745 0.840075 0.96 0.672
v 0.446283 0.769114 0.750656 0.840075 0.96 0.672
v 0.436656 0.766334 0.750565 0.840075 0.96 0.672
v 0.427171 0.763101 0.750473 0.840075 0.96 0.672
v 0.417849 0.759425 0.75038 0.840075 0.96 0.672
v 0.408711 0.755312 0.750285 0.840075 0.96 0.672
v 0.399778 0.750773 0.75019 0.840075 0.96 0.672
v 0.391069 0.745816 0.750094 0.840075 0.96 0.672
v 0.774186 0.867569 0.753764 0.840075 0.96 0.672
v 0.764104 0.87289 0.753717 0.840075 0.96 0.672
v 0.757697 0.880888 0.753713 0.840075 0.96 0.672
v 0.751059 0.888697 0.753707 0.840075 0.96 0.672
v 0.744196 0.896308 0.753698 0.840075 0.96 0.672
v 0.737115 0.903716 0.753686 0.840075 0.96 0.672
v 0.72982 0.910915 0.753671 0.840075 0.96 0.672
v 0.722319 0.917898 0.753653 0.840075 0.96 0.672
v 0.714617 0.924659 0.753632 0.840075 0.96 0.672
v 0.706722 0.931193 0.753609 0.840075 0.96 0.672
v 0.698639 0.937494 0.753583 0.840075 0.96 0.672
v 0.690376 0.943556 0.753554 0.840075 0.96 0.672
v 0.68194 0.949375 0.753522 0.840075 0.96 0.672
v 0.673338 0.954946 0.753488 0.840075 0.96 0.672
v 0.664577 0.960263 0.753451 0.840075 0.96 0.672
v 0.655664 0.965323 0.753411 0.840075 0.96 0.672
v 0.646608 0.970121 0.753368 0.840075 0.96 0.672
v 0.637417 0.974653 0.753323 0.840075 0.96 0.672
v 0.628096 0.978915 0.753276 0.840075 0.96 0.672
v 0.618656 0.982903 0.753226 0.840075 0.96 0.672
v 0.609103 0.986614 0.753173 0.840075 0.96 0.672
v 0.599446 0.990045 0.753118 0.840075 0.96 0.672
v 0.589694 0.993194 0.753061 0.840075 0.96 0.672
v 0.579853 0.996056 0.753001 0.840075 0.96 0.672
v 0.569934 0.998631 0.752939 0.840075 0.96 0.672
v 0.559943 1.00091 0.752875 0.840075 0.96 0.672
v 0.54989 1.00291 0.752809 0.840075 0.96 0.672
v 0.539784 1.0046 0.75274 0.840075 0.96 0.672
v 0.529632 1.00601 0.75267 0.840075 0.96 0.672
v 0.519444 1.00711 0.752597 0.840075 0.96 0.672
v 0.509228 1.00792 0.752523 0.840075 0.96 0.672
v 0.498992 1.00843 0.752446 0.840075 0.96 0.672
v 0.488746 1.00864 0.752368 0.840075 0.96 0.672
v 0.478498 1.00856 0.752288 0.840075 0.96 0.672
v 0.468258 1.00817 0.752207 0.840075 0.96 0.672
v 0.458032 1.00749 0.752124 0.840075 0.96 0.672
v 0.447831 1.0065 0.752039 0.840075 0.96 0.672
v 0.437663 1.00523 0.751953 0.840075 0.96 0.672
v 0.427537 1.00365 0.751865 0.840075 0.96 0.672
v 0.417461 1.00178 0.751776 0.840075 0.96 0.672
v 0.407444 0.999619 0.751686 0.840075 0.96 0.672
v 0.397494 0.997165 0.751595 0.840075 0.96 0.672
v 0.377846 0.991398 0.75141 0.840075 0.96 0.672
v 0.368165 0.988091 0.751316 0.840075 0.96 0.672
v 0.358585 0.984504 0.751221 0.840075 0.96 0.672
v 0.349112 0.980639 0.751125 0.840075 0.96 0.672
v 0.339757 0.9765 0.751029 0.840075 0.96 0.672
v 0.330525 0.972091 0.750932 0.840075 0.96 0.672
v 0.321426 0.967414 0.750834 0.840075 0.96 0.672
v 0.312467 0.962475 0.750736 0.840075 0.96 0.672
v 0.303656 0.957277 0.750638 0.840075 0.96 0.672
v 0.294999 0.951825 0.75054 0.840075 0.96 0.672
v 0.286505 0.946124 0.750441 0.840075 0.96 0.672
v 0.278181 0.940177 0.750342 0.840075 0.96 0.672
v 0.270033 0.933991 0.750243 0.840075 0.96 0.672
v 0.262068 0.92757 0.750144 0.840075 0.96 0.672
v 0.254294 0.92092 0.750046 0.840075 0.96 0.672
v 0.246717 0.914047 0.749947 0.840075 0.96 0.672
v 0.239343 0.906956 0.749849 0.840075 0.96 0.672
v 0.232178 0.899653 0.749752 0.840075 0.96 0.672
v 0.225229 0.892145 0.749654 0.840075 0.96 0.672
v 0.218502 0.884438 0.749558 0.840075 0.96 0.672
v 0.212001 0.876538 0.749462 0.840075 0.96 0.672
v 0.205734 0.868453 0.749367 0.840075 0.96 0.672
v 0.199704 0.860188 0.749272 0.840075 0.96 0.672
v 0.193917 0.851752 0.749179 0.840075 0.96 0.672
v 0.188379 0.84315 0.749086 0.840075 0.96 0.672
v 0.183093 0.834391 0.748995 0.840075 0.96 0.672
v 0.178064 0.825482 0.748904 0.840075 0.96 0.672
v 0.173297 0.81643 0.748815 0.840075 0.96 0.672
v 0.168795 0.807244 0.748727 0.840075 0.96 0.672
v 0.160661 0.788641 0.748557 0.840075 0.96 0.672
v 0.157027 0.779244 0.748474 0.840075 0.96 0.672
v 0.153664 0.769747 0.748393 0.840075 0.96 0.672
v 0.150575 0.760158 0.748314 0.840075 0.96 0.672
v 0.147762 0.750484 0.748236 0.840075 0.96 0.672
v 0.145227 0.740733 0.74816 0.840075 0.96 0.672
v 0.142973 0.730913 0.748086 0.840075 0.96 0.672
v 0.141001 0.721033 0.748014 0.840075 0.96 0.672
v 0.139313 0.7111 0.747943 0.840075 0.96 0.672
v 0.137911 0.701123 0.747875 0.840075 0.96 0.672
v 0.136795 0.69111 0.747808 0.840075 0.96 0.672
v 0.135967 0.681069 0.747744 0.840075 0.96 0.672
v 0.135426 0.671009 0.747682 0.840075 0.96 0.672
v 0.135175 0.660937 0.747622 0.840075 0.96 0.672
v 0.135212 0.650862 0.747564 0.840075 0.96 0.672
v 0.135537 0.640792 0.747508 0.840075 0.96 0.672
v 0.136152 0.630736 0.747455 0.840075 0.96 0.672
v 0.137054 0.620701 0.747404 0.840075 0.96 0.672
v 0.138243 0.610697 0.747355 0.840075 0.96 0.672
v 0.139719 0.60073 0.747309 0.840075 0.96 0.672
v 0.14148 0.59081 0.747265 0.840075 0.96 0.672
v 0.143524 0.580944 0.747224 0.840075 0.96 0.672
v 0.145851 0.571142 0.747186 0.840075 0.96 0.672
v 0.148457 0.561409 0.74715 0.840075 0.96 0.672
v 0.151341 0.551756 0.747116 0.840075 0.96 0.672
v 0.154501 0.542189 0.747085 0.840075 0.96 0.672
v 0.157934 0.532716 0.747057 0.840075 0.96 0.672
v 0.161636 0.523346 0.747032 0.840075 0.96 0.672
v 0.165606 0.514086 0.747009 0.840075 0.96 0.672
v 0.169839 0.504943 0.746989 0.840075 0.96 0.672
v 0.174333 0.495926 0.746972 0.840075 0.96 0.672
v 0.179084 0.487041 0.746957 0.840075 0.96 0.672
v 0.184087 0.478296 0.746945 0.840075 0.96 0.672
v 0.189339 0.469697 0.746936 0.840075 0.96 0.672
v 0.194835 0.461253 0.74693 0.840075 0.96 0.672
v 0.20057 0.45297 0.746927 0.840075 0.96 0.672
v 0.206541 0.444855 0.746926 0.840075 0.96 0.672
v 0.212742 0.436914 0.746928 0.840075 0.96 0.672
v 0.219168 0.429154 0.746933 0.840075 0.96 0.672
v 0.225814 0.421581 0.746941 0.840075 0.96 0.672
v 0.232674 0.414202 0.746952 0.840075 0.96 0.672
v 0.239742 0.407023 0.746965 0.840075 0.96 0.672
v 0.247014 0.400049 0.746981 0.840075 0.96 0.672
v 0.254483 0.393286 0.747 0.840075 0.96 0.672
v 0.262142 0.386741 0.747021 0.840075 0.96 0.672
v 0.269985 0.380417 0.747045 0.840075 0.96 0.672
v 0.278007 0.374321 0.747072 0.840075 0.96 0.672
v 0.2862 0.368457 0.747102 0.840075 0.96 0.672
v 0.294558 0.362831 0.747134 0.840075 0.96 0.672
v 0.303074 0.357446 0.747169 0.840075 0.96 0.672
v 0.31174 0.352308 0.747206 0.840075 0.96 0.672
v 0.32055 0.34742 0.747246 0.840075 0.96 0.672
v 0.329497 0.342787 0.747289 0.840075 0.96 0.672
v 0.338572 0.338412 0.747334 0.840075 0.96 0.672
v 0.34777 0.334299 0.747381 0.840075 0.96 0.672
v 0.357081 0.330451 0.747431 0.840075 0.96 0.672
v 0.366499 0.326872 0.747484 0.840075 0.96 0.672
v 0.376016 0.323564 0.747538 0.840075 0.96 0.672
v 0.385623 0.320531 0.747595 0.840075 0.96 0.672
v 0.395314 0.317773 0.747654 0.840075 0.96 0.672
v 0.405079 0.315295 0.747715 0.840075 0.96 0.672
v 0.414912 0.313098 0.747779 0.840075 0.96 0.672
v 0.424803 0.311183 0.747844 0.840075 0.96 0.672
v 0.434745 0.309553 0.747912 0.840075 0.96 0.672
v 0.44473 0.308208 0.747982 0.840075 0.96 0.672
v 0.454749 0.307151 0.748053 0.840075 0.96 0.672
v 0.464795 0.30638 0.748126 0.840075 0.96 0.672
v 0.474858 0.305898 0.748202 0.840075 0.96 0.672
v 0.484931 0.305705 0.748279 0.840075 0.96 0.672
v 0.495006 0.3058 0.748357 0.840075 0.96 0.672
v 0.505074 0.306184 0.748437 0.840075 0.96 0.672
v 0.515126 0.306857 0.748519 0.840075 0.96 0.672
v 0.525155 0.307817 0.748602 0.840075 0.96 0.672
v 0.535152 0.309065 0.748687 0.840075 0.96 0.672
v 0.54511 0.310598 0.748773 0.840075 0.96 0.672
v 0.555019 0.312417 0.74886 0.840075 0.96 0.672
v 0.564872 0.314518 0.748949 0.840075 0.96 0.672
v 0.574661 0.316901 0.749038 0.840075 0.96 0.672
v 0.584378 0.319564 0.749129 0.840075 0.96 0.672
v 0.594014 0.322504 0.74922 0.840075 0.96 0.672
v 0.603562 0.325719 0.749313 0.840075 0.96 0.672
v 0.613014 0.329207 0.749406 0.840075 0.96 0.672
v 0.622362 0.332964 0.7495 0.840075 0.96 0.672
v 0.631599 0.336987 0.749595 0.840075 0.96 0.672
v 0.640716 0.341273 0.749691 0.840075 0.96 0.672
v 0.649707 0.345819 0.749786 0.840075 0.96 0.672
v 0.658564 0.350621 0.749883 0.840075 0.96 0.672
v 0.667279 0.355675 0.749979 0.840075 0.96 0.672
v 0.675847 0.360977 0.750076 0.840075 0.96 0.672
v 0.684258 0.366522 0.750174 0.840075 0.96 0.672
v 0.692507 0.372305 0.750271 0.840075 0.96 0.672
v 0.700587 0.378323 0.750368 0.840075 0.96 0.672
v 0.708492 0.38457 0.750465 0.840075 0.96 0.672
v 0.716214 0.391041 0.750563 0.840075 0.96 0.672
v 0.723747 0.39773 0.75066 0.840075 0.96 0.672
v 0.731085 0.404633 0.750756 0.840075 0.96 0.672
v 0.738223 0.411744 0.750853 0.840075 0.96 0.672
v 0.745154 0.419055 0.750949 0.840075 0.96 0.672
v 0.751872 0.426563 0.751044 0.840075 0.96 0.672
v 0.758373 0.43426 0.751139 0.840075 0.96 0.672
v 0.76465 0.44214 0.751233 0.840075 0.96 0.672
v 0.770698 0.450197 0.751326 0.840075 0.96 0.672
v 0.776514 0.458424 0.751419 0.840075 0.96 0.672
v 0.782091 0.466815 0.751511 0.840075 0.96 0.672
v 0.787425 0.475362 0.751601 0.840075 0.96 0.672
v 0.792512 0.484058 0.751691 0.840075 0.96 0.672
v 0.797348 0.492896 0.751779 0.840075 0.96 0.672
v 0.801929 0.50187 0.751867 0.840075 0.96 0.672
v 0.80625 0.510971 0.751953 0.840075 0.96 0.672
v 0.810309 0.520192 0.752037 0.840075 0.96 0.672
v 0.814102 0.529525 0.752121 0.840075 0.96 0.672
v 0.817625 0.538964 0.752202 0.840075 0.96 0.672
v 0.820877 0.5485 0.752283 0.840075 0.96 0.672
v 0.823854 0.558125 0.752361 0.840075 0.96 0.672
v 0.826554 0.567831 0.752438 0.840075 0.96 0.672
v 0.828975 0.577611 0.752514 0.840075 0.96 0.672
v 0.831114 0.587456 0.752587 0.840075 0.96 0.672
v 0.832971 0.597359 0.752659 0.840075 0.96 0.672
v 0.834542 0.60731 0.752728 0.840075 0.96 0.672
v 0.835828 0.617303 0.752796 0.840075 0.96 0.672
v 0.836827 0.627328 0.752862 0.840075 0.96 0.672
v 0.837538 0.637378 0.752925 0.840075 0.96 0.672
v 0.837961 0.647444 0.752987 0.840075 0.96 0.672
v 0.838095 0.657519 0.753046 0.840075 0.96 0.672
v 0.83794 0.667593 0.753103 0.840075 0.96 0.672
v 0.837497 0.677658 0.753157 0.840075 0.96 0.672
v 0.836765 0.687706 0.75321 0.840075 0.96 0.672
v 0.835746 0.69773 0.75326 0.840075 0.96 0.672
v 0.83444 0.70772 0.753307 0.840075 0.96 0.672
v 0.832848 0.717668 0.753353 0.840075 0.96 0.672
v 0.830971 0.727567 0.753395 0.840075 0.96 0.672
v 0.828812 0.737408 0.753435 0.840075 0.96 0.672
v 0.826371 0.747183 0.753473 0.840075 0.96 0.672
v 0.823651 0.756884 0.753508 0.840075 0.96 0.672
v 0.820655 0.766504 0.75354 0.840075 0.96 0.672
v 0.817383 0.776033 0.75357 0.840075 0.96 0.672
v 0.81384 0.785465 0.753597 0.840075 0.96 0.672
v 0.810029 0.794791 0.753621 0.840075 0.96 0.672
v 0.805951 0.804004 0.753643 0.840075 0.96 0.672
v 0.801611 0.813097 0.753662 0.840075 0.96 0.672
v 0.797012 0.822061 0.753678 0.840075 0.96 0.672
v 0.792158 0.83089 0.753691 0.840075 0.96 0.672
v 0.787053 0.839576 0.753702 0.840075 0.96 0.672
v 0.781702 0.848113 0.75371 0.840075 0.96 0.672
v 0.776108 0.856492 0.753715 0.840075 0.96 0.672
v 0.671964 0.439297 0.750499 0.840075 0.96 0.672
v 0.67766 0.447541 0.75059 0.840075 0.96 0.672
v 0.68296 0.456045 0.750681 0.840075 0.96 0.672
v 0.687853 0.464791 0.750769 0.840075 0.96 0.672
v 0.692327 0.473757 0.750855 0.840075 0.96 0.672
v 0.696373 0.482925 0.75094 0.840075 0.96 0.672
v 0.699981 0.492273 0.751022 0.840075 0.96 0.672
v 0.703144 0.501782 0.751101 0.840075 0.96 0.672
v 0.705854 0.511429 0.751178 0.840075 0.96 0.672
v 0.708106 0.521194 0.751252 0.840075 0.96 0.672
v 0.709894 0.531054 0.751322 0.840075 0.96 0.672
v 0.711214 0.540987 0.75139 0.840075 0.96 0.672
v 0.712064 0.550972 0.751454 0.840075 0.96 0.672
v 0.712441 0.560986 0.751515 0.840075 0.96 0.672
v 0.712345 0.571006 0.751572 0.840075 0.96 0.672
v 0.711776 0.581011 0.751626 0.840075 0.96 0.672
v 0.710735 0.590977 0.751675 0.840075 0.96 0.672
v 0.709225 0.600884 0.751721 0.840075 0.96 0.672
v 0.707248 0.610708 0.751762 0.840075 0.96 0.672
v 0.70481 0.620428 0.751799 0.840075 0.96 0.672
v 0.701915 0.630022 0.751832 0.840075 0.96 0.672
v 0.698571 0.639468 0.751861 0.840075 0.96 0.672
v 0.694784 0.648746 0.751885 0.840075 0.96 0.672
v 0.690563 0.657835 0.751905 0.840075 0.96 0.672
v 0.685918 0.666714 0.75192 0.840075 0.96 0.672
v 0.680859 0.675365 0.751931 0.840075 0.96 0.672
v 0.675397 0.683766 0.751937 0.840075 0.96 0.672
v 0.669544 0.6919 0.751939 0.840075 0.96 0.672
v 0.663314 0.699749 0.751936 0.840075 0.96 0.672
v 0.65672 0.707295 0.751929 0.840075 0.96 0.672
v 0.649777 0.714521 0.751917 0.840075 0.96 0.672
v 0.6425 0.721411 0.7519 0.840075 0.96 0.672
v 0.634906 0.72795 0.751879 0.840075 0.96 0.672
v 0.627012 0.734123 0.751853 0.840075 0.96 0.672
v 0.618836 0.739916 0.751824 0.840075 0.96 0.672
v 0.610394 0.745317 0.751789 0.840075 0.96 0.672
v 0.601708 0.750313 0.751751 0.840075 0.96 0.672
v 0.592795 0.754893 0.751708 0.840075 0.96 0.672
v 0.583675 0.759048 0.751662 0.840075 0.96 0.672
v 0.57437 0.762766 0.751611 0.840075 0.96 0.672
v 0.5649 0.766042 0.751557 0.840075 0.96 0.672
v 0.555285 0.768866 0.751499 0.840075 0.96 0.672
v 0.545548 0.771233 0.751437 0.840075 0.96 0.672
v 0.53571 0.773138 0.751372 0.840075 0.96 0.672
v 0.525792 0.774576 0.751303 0.840075 0.96 0.672
v 0.515819 0.775544 0.751232 0.840075 0.96 0.672
v 0.50581 0.77604 0.751157 0.840075 0.96 0.672
v 0.271424 0.699673 0.7489 0.840075 0.96 0.672
f 2 59 1
f 61 60 2
f 60 59 2
f 59 58 1
f 30 4 1
f 62 61 2
f 66 65 2
f 65 64 2
f 71 70 2
f 67 66 2
f 68 67 2
f 76 75 2
f 72 71 2
f 73 72 2
f 75 74 2
f 74 73 2
f 32 31 1
f 31 30 1
f 36 35 1
f 35 34 1
f 33 32 1
f 34 33 1
f 64 63 2
f 63 62 2
f 69 68 2
f 70 69 2
f 78 77 2
f 77 76 2
f 58 57 1
f 53 52 1
f 48 47 1
f 49 48 1
f 52 51 1
f 37 36 1
f 41 40 1
f 40 39 1
f 47 46 1
f 42 41 1
f 86 85 3
f 56 55 1
f 57 56 1
f 55 54 1
f 54 53 1
f 50 49 1
f 51 50 1
f 39 38 1
f 38 37 1
f 45 44 1
f 46 45 1
f 44 43 1
f 43 42 1
f 88 87 3
f 87 86 3
f 82 81 3
f 83 82 3
f 85 84 3
f 84 83 3
f 81 80 3
f 80 79 3
f 7 6 4
f 4 90 3
f 6 90 4
f 12 11 4
f 24 23 4
f 23 22 4
f 9 8 4
f 8 7 4
f 89 88 3
f 90 89 3
f 16 15 4
f 15 14 4
f 13 12 4
f 14 13 4
f 10 9 4
f 11 10 4
f 30 29 4
f 29 28 4
f 27 26 4
f 28 27 4
f 26 25 4
f 25 24 4
f 17 16 4
f 18 17 4
f 20 19 4
f 19 18 4
f 21 20 4
f 22 21 4
f 5 90 6
f 162 161 4
f 133 132 3
f 92 306 91
f 130 82 129
f 82 128 129
f 54 225 226
f 344 99 100
f 101 344 100
f 60 232 233
f 53 224 225
f 54 53 225
f 99 343 98
f 344 343 99
f 343 97 98
f 345 101 102
f 345 344 101
f 345 102 103
f 234 61 233
f 61 60 233
f 61 234 235
f 232 59 231
f 60 59 232
f 224 52 223
f 53 52 224
f 97 342 96
f 343 342 97
f 342 95 96
f 104 346 103
f 346 345 103
f 105 346 104
f 346 105 106
f 236 62 235
f 62 61 235
f 231 58 230
f 59 58 231
f 51 222 223
f 52 51 223
f 51 221 222
f 95 341 94
f 342 341 95
f 94 341 93
f 107 347 106
f 347 346 106
f 347 107 108
f 63 236 237
f 63 62 236
f 57 229 230
f 58 57 230
f 221 50 220
f 51 50 221
f 340 92 93
f 341 340 93
f 109 348 108
f 348 347 108
f 348 109 110
f 238 64 237
f 64 63 237
f 229 56 228
f 57 56 229
f 56 227 228
f 49 219 220
f 50 49 220
f 92 339 306
f 340 339 92
f 339 305 306
f 111 349 110
f 349 348 110
f 112 349 111
f 65 238 239
f 65 64 238
f 56 55 227
f 227 55 226
f 55 54 226
f 219 48 218
f 49 48 219
f 305 338 304
f 339 338 305
f 338 303 304
f 350 112 113
f 350 349 112
f 114 350 113
f 66 239 240
f 66 65 239
f 47 217 218
f 48 47 218
f 217 47 216
f 303 337 302
f 338 337 303
f 337 301 302
f 351 114 115
f 351 350 114
f 351 115 116
f 117 351 116
f 241 67 240
f 67 66 240
f 242 67 241
f 46 215 216
f 47 46 216
f 301 336 300
f 337 336 301
f 300 336 299
f 352 117 118
f 352 351 117
f 119 352 118
f 68 242 243
f 68 67 242
f 215 45 214
f 46 45 215
f 335 298 299
f 336 335 299
f 298 335 297
f 353 119 120
f 353 352 119
f 121 353 120
f 244 69 243
f 69 68 243
f 44 213 214
f 45 44 214
f 334 296 297
f 335 334 297
f 122 79 121
f 79 353 121
f 79 122 123
f 245 70 244
f 70 69 244
f 213 43 212
f 44 43 213
f 43 211 212
f 296 333 295
f 334 333 296
f 333 294 295
f 124 80 123
f 80 79 123
f 80 124 125
f 80 125 126
f 71 245 246
f 71 70 245
f 211 42 210
f 43 42 211
f 332 293 294
f 333 332 294
f 293 332 292
f 127 81 126
f 81 80 126
f 81 127 128
f 82 81 128
f 247 72 246
f 72 71 246
f 72 247 248
f 210 41 209
f 42 41 210
f 331 291 292
f 332 331 292
f 291 331 290
f 249 73 248
f 73 72 248
f 40 208 209
f 41 40 209
f 40 207 208
f 330 289 290
f 331 330 290
f 74 249 250
f 74 73 249
f 207 39 206
f 40 39 207
f 251 75 250
f 75 74 250
f 38 205 206
f 39 38 206
f 76 251 252
f 76 75 251
f 37 204 205
f 38 37 205
f 204 37 203
f 77 252 253
f 77 76 252
f 254 77 253
f 36 202 203
f 37 36 203
f 78 254 255
f 78 77 254
f 202 35 201
f 36 35 202
f 35 200 201
f 256 307 255
f 307 78 255
f 200 34 199
f 35 34 200
f 308 256 257
f 308 307 256
f 258 308 257
f 33 198 199
f 34 33 199
f 309 258 259
f 309 308 258
f 198 32 197
f 33 32 198
f 197 32 196
f 310 259 260
f 310 309 259
f 31 195 196
f 32 31 196
f 261 311 260
f 311 310 260
f 195 30 194
f 31 30 195
f 30 193 194
f 312 261 262
f 312 311 261
f 263 312 262
f 193 29 192
f 30 29 193
f 29 191 192
f 313 263 264
f 313 312 263
f 28 190 191
f 29 28 191
f 265 314 264
f 314 313 264
f 314 265 266
f 190 27 189
f 28 27 190
f 27 188 189
f 267 315 266
f 315 314 266
f 188 26 187
f 27 26 188
f 316 267 268
f 316 315 267
f 25 186 187
f 26 25 187
f 186 25 185
f 269 317 268
f 317 316 268
f 270 317 269
f 24 184 185
f 25 24 185
f 184 24 183
f 318 270 271
f 318 317 270
f 183 23 182
f 24 23 183
f 272 319 271
f 319 318 271
f 273 319 272
f 22 181 182
f 23 22 182
f 181 22 180
f 320 273 274
f 320 319 273
f 180 21 179
f 22 21 180
f 21 178 179
f 275 321 274
f 321 320 274
f 321 275 276
f 178 20 177
f 21 20 178
f 20 176 177
f 277 322 276
f 322 321 276
f 176 19 175
f 20 19 176
f 19 174 175
f 323 277 278
f 323 322 277
f 279 323 278
f 18 173 174
f 19 18 174
f 280 324 279
f 324 323 279
f 173 17 172
f 18 17 173
f 17 171 172
f 325 280 281
f 325 324 280
f 282 325 281
f 16 170 171
f 17 16 171
f 170 16 169
f 326 282 283
f 326 325 282
f 15 168 169
f 16 15 169
f 168 15 167
f 284 327 283
f 327 326 283
f 327 284 285
f 14 166 167
f 15 14 167
f 166 14 165
f 286 328 285
f 328 327 285
f 287 328 286
f 13 164 165
f 14 13 165
f 164 13 163
f 329 287 288
f 329 328 287
f 289 329 288
f 330 329 289
f 163 12 162
f 13 12 163
f 12 161 162
f 11 160 161
f 12 11 161
f 160 10 159
f 11 10 160
f 10 158 159
f 158 9 157
f 10 9 158
f 157 9 156
f 8 155 156
f 9 8 156
f 155 8 154
f 7 153 154
f 8 7 154
f 153 7 152
f 7 151 152
f 151 6 150
f 7 6 151
f 150 6 149
f 6 148 149
f 148 90 147
f 6 90 148
f 90 146 147
f 146 90 145
f 89 144 145
f 90 89 145
f 144 89 143
f 143 88 142
f 89 88 143
f 88 141 142
f 141 88 140
f 87 139 140
f 88 87 140
f 139 87 138
f 86 137 138
f 87 86 138
f 137 86 136
f 136 85 135
f 86 85 136
f 85 134 135
f 134 84 133
f 85 84 134
f 133 84 132
f 83 131 132
f 84 83 132
f 131 83 130
f 83 82 130
f 91 5 354
