# Created by Open3D 
# object name: face_00007
# number of vertices: 359
# number of triangles: 357
v 0.789336 0.85898 0.249043 0.684261 0.96 0.672
v 0.794046 0.849735 0.249071 0.684261 0.96 0.672
v 0.800396 0.841961 0.249106 0.684261 0.96 0.672
v 0.806521 0.834008 0.249141 0.684261 0.96 0.672
v 0.812416 0.825884 0.249174 0.684261 0.96 0.672
v 0.818077 0.817595 0.249206 0.684261 0.96 0.672
v 0.823499 0.809147 0.249237 0.684261 0.96 0.672
v 0.828678 0.800548 0.249267 0.684261 0.96 0.672
v 0.833609 0.791805 0.249295 0.684261 0.96 0.672
v 0.838288 0.782924 0.249323 0.684261 0.96 0.672
v 0.842711 0.773914 0.249349 0.684261 0.96 0.672
v 0.846876 0.76478 0.249374 0.684261 0.96 0.672
v 0.850778 0.755532 0.249397 0.684261 0.96 0.672
v 0.854414 0.746176 0.24942 0.684261 0.96 0.672
v 0.857782 0.73672 0.24944 0.684261 0.96 0.672
v 0.860878 0.727171 0.24946 0.684261 0.96 0.672
v 0.863701 0.717538 0.249478 0.684261 0.96 0.672
v 0.866247 0.707829 0.249495 0.684261 0.96 0.672
v 0.868515 0.69805 0.249511 0.684261 0.96 0.672
v 0.870502 0.688211 0.249525 0.684261 0.96 0.672
v 0.872208 0.678319 0.249538 0.684261 0.96 0.672
v 0.873631 0.668383 0.249549 0.684261 0.96 0.672
v 0.87477 0.658409 0.249559 0.684261 0.96 0.672
v 0.875623 0.648408 0.249567 0.684261 0.96 0.672
v 0.87619 0.638386 0.249574 0.684261 0.96 0.672
v 0.876471 0.628352 0.24958 0.684261 0.96 0.672
v 0.876465 0.618314 0.249584 0.684261 0.96 0.672
v 0.876173 0.60828 0.249587 0.684261 0.96 0.672
v 0.875594 0.598259 0.249588 0.684261 0.96 0.672
v 0.874729 0.588259 0.249588 0.684261 0.96 0.672
v 0.873579 0.578287 0.249586 0.684261 0.96 0.672
v 0.872145 0.568352 0.249583 0.684261 0.96 0.672
v 0.870427 0.558462 0.249578 0.684261 0.96 0.672
v 0.868428 0.548625 0.249572 0.684261 0.96 0.672
v 0.866149 0.538849 0.249565 0.684261 0.96 0.672
v 0.863591 0.529143 0.249556 0.684261 0.96 0.672
v 0.860758 0.519513 0.249545 0.684261 0.96 0.672
v 0.85765 0.509968 0.249533 0.684261 0.96 0.672
v 0.854272 0.500516 0.24952 0.684261 0.96 0.672
v 0.850625 0.491164 0.249506 0.684261 0.96 0.672
v 0.846712 0.48192 0.24949 0.684261 0.96 0.672
v 0.842537 0.472792 0.249472 0.684261 0.96 0.672
v 0.838103 0.463786 0.249454 0.684261 0.96 0.672
v 0.833413 0.454911 0.249433 0.684261 0.96 0.672
v 0.828472 0.446173 0.249412 0.684261 0.96 0.672
v 0.823284 0.43758 0.249389 0.684261 0.96 0.672
v 0.817852 0.429139 0.249365 0.684261 0.96 0.672
v 0.812181 0.420856 0.24934 0.684261 0.96 0.672
v 0.806277 0.412739 0.249313 0.684261 0.96 0.672
v 0.800142 0.404793 0.249286 0.684261 0.96 0.672
v 0.793784 0.397026 0.249257 0.684261 0.96 0.672
v 0.787206 0.389444 0.249227 0.684261 0.96 0.672
v 0.780414 0.382053 0.249195 0.684261 0.96 0.672
v 0.773415 0.374858 0.249163 0.684261 0.96 0.672
v 0.766212 0.367866 0.249129 0.684261 0.96 0.672
v 0.758813 0.361083 0.249094 0.684261 0.96 0.672
v 0.751223 0.354514 0.249059 0.684261 0.96 0.672
v 0.743449 0.348165 0.249022 0.684261 0.96 0.672
v 0.735496 0.34204 0.248984 0.684261 0.96 0.672
v 0.727372 0.336144 0.248946 0.684261 0.96 0.672
v 0.719083 0.330483 0.248906 0.684261 0.96 0.672
v 0.710635 0.325061 0.248865 0.684261 0.96 0.672
v 0.702036 0.319883 0.248824 0.684261 0.96 0.672
v 0.693293 0.314952 0.248782 0.684261 0.96 0.672
v 0.684413 0.310272 0.248739 0.684261 0.96 0.672
v 0.675402 0.305849 0.248695 0.684261 0.96 0.672
v 0.666269 0.301684 0.24865 0.684261 0.96 0.672
v 0.657021 0.297782 0.248605 0.684261 0.96 0.672
v 0.647665 0.294145 0.248559 0.684261 0.96 0.672
v 0.638209 0.290778 0.248513 0.684261 0.96 0.672
v 0.62866 0.287681 0.248466 0.684261 0.96 0.672
v 0.619028 0.284859 0.248418 0.684261 0.96 0.672
v 0.609318 0.282313 0.24837 0.684261 0.96 0.672
v 0.59954 0.280045 0.248321 0.684261 0.96 0.672
v 0.589701 0.278057 0.248272 0.684261 0.96 0.672
v 0.579809 0.276351 0.248223 0.684261 0.96 0.672
v 0.569873 0.274928 0.248173 0.684261 0.96 0.672
v 0.5599 0.27379 0.248123 0.684261 0.96 0.672
v 0.549898 0.272937 0.248073 0.684261 0.96 0.672
v 0.539876 0.272369 0.248022 0.684261 0.96 0.672
v 0.529842 0.272088 0.247972 0.684261 0.96 0.672
v 0.519805 0.272094 0.247921 0.684261 0.96 0.672
v 0.509771 0.272387 0.24787 0.684261 0.96 0.672
v 0.49975 0.272966 0.247819 0.684261 0.96 0.672
v 0.48975 0.27383 0.247768 0.684261 0.96 0.672
v 0.479778 0.27498 0.247717 0.684261 0.96 0.672
v 0.469843 0.276415 0.247666 0.684261 0.96 0.672
v 0.459953 0.278132 0.247615 0.684261 0.96 0.672
v 0.450117 0.280131 0.247565 0.684261 0.96 0.672
v 0.440341 0.28241 0.247514 0.684261 0.96 0.672
v 0.430634 0.284968 0.247464 0.684261 0.96 0.672
v 0.421005 0.287801 0.247414 0.684261 0.96 0.672
v 0.41146 0.290909 0.247364 0.684261 0.96 0.672
v 0.402008 0.294287 0.247315 0.684261 0.96 0.672
v 0.392656 0.297935 0.247266 0.684261 0.96 0.672
v 0.383413 0.301847 0.247218 0.684261 0.96 0.672
v 0.374284 0.306023 0.24717 0.684261 0.96 0.672
v 0.365279 0.310457 0.247122 0.684261 0.96 0.672
v 0.356404 0.315146 0.247076 0.684261 0.96 0.672
v 0.347666 0.320087 0.247029 0.684261 0.96 0.672
v 0.339073 0.325276 0.246984 0.684261 0.96 0.672
v 0.330632 0.330708 0.246939 0.684261 0.96 0.672
v 0.32235 0.336378 0.246894 0.684261 0.96 0.672
v 0.314232 0.342283 0.246851 0.684261 0.96 0.672
v 0.306287 0.348417 0.246808 0.684261 0.96 0.672
v 0.29852 0.354776 0.246766 0.684261 0.96 0.672
v 0.290938 0.361354 0.246725 0.684261 0.96 0.672
v 0.283546 0.368146 0.246685 0.684261 0.96 0.672
v 0.276352 0.375145 0.246645 0.684261 0.96 0.672
v 0.26936 0.382348 0.246607 0.684261 0.96 0.672
v 0.262577 0.389747 0.24657 0.684261 0.96 0.672
v 0.256009 0.397337 0.246533 0.684261 0.96 0.672
v 0.249659 0.405112 0.246498 0.684261 0.96 0.672
v 0.243534 0.413064 0.246463 0.684261 0.96 0.672
v 0.237639 0.421189 0.24643 0.684261 0.96 0.672
v 0.231978 0.429478 0.246398 0.684261 0.96 0.672
v 0.226556 0.437925 0.246367 0.684261 0.96 0.672
v 0.221377 0.446524 0.246337 0.684261 0.96 0.672
v 0.216446 0.455268 0.246309 0.684261 0.96 0.672
v 0.211767 0.464148 0.246282 0.684261 0.96 0.672
v 0.207344 0.473159 0.246255 0.684261 0.96 0.672
v 0.203179 0.482292 0.246231 0.684261 0.96 0.672
v 0.199277 0.491541 0.246207 0.684261 0.96 0.672
v 0.195641 0.500897 0.246185 0.684261 0.96 0.672
v 0.192273 0.510353 0.246164 0.684261 0.96 0.672
v 0.189177 0.519901 0.246144 0.684261 0.96 0.672
v 0.186354 0.529534 0.246126 0.684261 0.96 0.672
v 0.183808 0.539244 0.246109 0.684261 0.96 0.672
v 0.18154 0.549022 0.246093 0.684261 0.96 0.672
v 0.179552 0.558861 0.246079 0.684261 0.96 0.672
v 0.177847 0.568753 0.246067 0.684261 0.96 0.672
v 0.176424 0.57869 0.246055 0.684261 0.96 0.672
v 0.175285 0.588663 0.246045 0.684261 0.96 0.672
v 0.174432 0.598665 0.246037 0.684261 0.96 0.672
v 0.173865 0.608686 0.24603 0.684261 0.96 0.672
v 0.173584 0.61872 0.246024 0.684261 0.96 0.672
v 0.17359 0.628758 0.24602 0.684261 0.96 0.672
v 0.173882 0.638792 0.246017 0.684261 0.96 0.672
v 0.174461 0.648813 0.246016 0.684261 0.96 0.672
v 0.175326 0.658814 0.246017 0.684261 0.96 0.672
v 0.176476 0.668786 0.246018 0.684261 0.96 0.672
v 0.17791 0.678721 0.246021 0.684261 0.96 0.672
v 0.179628 0.688611 0.246026 0.684261 0.96 0.672
v 0.181627 0.698447 0.246032 0.684261 0.96 0.672
v 0.183906 0.708223 0.24604 0.684261 0.96 0.672
v 0.186464 0.71793 0.246049 0.684261 0.96 0.672
v 0.189297 0.727559 0.246059 0.684261 0.96 0.672
v 0.192404 0.737104 0.246071 0.684261 0.96 0.672
v 0.195783 0.746557 0.246084 0.684261 0.96 0.672
v 0.19943 0.755908 0.246098 0.684261 0.96 0.672
v 0.203343 0.765152 0.246114 0.684261 0.96 0.672
v 0.207518 0.774281 0.246132 0.684261 0.96 0.672
v 0.211952 0.783286 0.246151 0.684261 0.96 0.672
v 0.216642 0.792161 0.246171 0.684261 0.96 0.672
v 0.221583 0.800899 0.246192 0.684261 0.96 0.672
v 0.226771 0.809492 0.246215 0.684261 0.96 0.672
v 0.232203 0.817933 0.246239 0.684261 0.96 0.672
v 0.237874 0.826216 0.246264 0.684261 0.96 0.672
v 0.243778 0.834333 0.246291 0.684261 0.96 0.672
v 0.249913 0.842279 0.246318 0.684261 0.96 0.672
v 0.256271 0.850046 0.246347 0.684261 0.96 0.672
v 0.262849 0.857628 0.246378 0.684261 0.96 0.672
v 0.269641 0.86502 0.246409 0.684261 0.96 0.672
v 0.27664 0.872214 0.246441 0.684261 0.96 0.672
v 0.283843 0.879206 0.246475 0.684261 0.96 0.672
v 0.291242 0.885989 0.24651 0.684261 0.96 0.672
v 0.298832 0.892558 0.246545 0.684261 0.96 0.672
v 0.306606 0.898908 0.246582 0.684261 0.96 0.672
v 0.314559 0.905033 0.24662 0.684261 0.96 0.672
v 0.322683 0.910928 0.246659 0.684261 0.96 0.672
v 0.330972 0.916589 0.246698 0.684261 0.96 0.672
v 0.33942 0.922011 0.246739 0.684261 0.96 0.672
v 0.348019 0.92719 0.24678 0.684261 0.96 0.672
v 0.356762 0.932121 0.246822 0.684261 0.96 0.672
v 0.365642 0.9368 0.246865 0.684261 0.96 0.672
v 0.374653 0.941224 0.246909 0.684261 0.96 0.672
v 0.383786 0.945388 0.246954 0.684261 0.96 0.672
v 0.393034 0.949291 0.246999 0.684261 0.96 0.672
v 0.40239 0.952927 0.247045 0.684261 0.96 0.672
v 0.411846 0.956295 0.247091 0.684261 0.96 0.672
v 0.421394 0.959391 0.247138 0.684261 0.96 0.672
v 0.431027 0.962214 0.247186 0.684261 0.96 0.672
v 0.440737 0.96476 0.247234 0.684261 0.96 0.672
v 0.450515 0.967028 0.247283 0.684261 0.96 0.672
v 0.460354 0.969015 0.247332 0.684261 0.96 0.672
v 0.470246 0.970721 0.247381 0.684261 0.96 0.672
v 0.480182 0.972144 0.247431 0.684261 0.96 0.672
v 0.490155 0.973283 0.247481 0.684261 0.96 0.672
v 0.500157 0.974136 0.247531 0.684261 0.96 0.672
v 0.510179 0.974703 0.247582 0.684261 0.96 0.672
v 0.520212 0.974984 0.247632 0.684261 0.96 0.672
v 0.53025 0.974978 0.247683 0.684261 0.96 0.672
v 0.540284 0.974686 0.247734 0.684261 0.96 0.672
v 0.550305 0.974107 0.247785 0.684261 0.96 0.672
v 0.560305 0.973242 0.247836 0.684261 0.96 0.672
v 0.570277 0.972092 0.247887 0.684261 0.96 0.672
v 0.580212 0.970658 0.247938 0.684261 0.96 0.672
v 0.590102 0.96894 0.247989 0.684261 0.96 0.672
v 0.599938 0.966941 0.24804 0.684261 0.96 0.672
v 0.609714 0.964662 0.24809 0.684261 0.96 0.672
v 0.619421 0.962105 0.24814 0.684261 0.96 0.672
v 0.62905 0.959271 0.24819 0.684261 0.96 0.672
v 0.638595 0.956164 0.24824 0.684261 0.96 0.672
v 0.648047 0.952785 0.248289 0.684261 0.96 0.672
v 0.657399 0.949138 0.248338 0.684261 0.96 0.672
v 0.666642 0.945225 0.248386 0.684261 0.96 0.672
v 0.675771 0.94105 0.248434 0.684261 0.96 0.672
v 0.684776 0.936616 0.248482 0.684261 0.96 0.672
v 0.693651 0.931926 0.248529 0.684261 0.96 0.672
v 0.702389 0.926985 0.248575 0.684261 0.96 0.672
v 0.710981 0.921797 0.248621 0.684261 0.96 0.672
v 0.719423 0.916365 0.248666 0.684261 0.96 0.672
v 0.727705 0.910694 0.24871 0.684261 0.96 0.672
v 0.735823 0.904789 0.248753 0.684261 0.96 0.672
v 0.743768 0.898655 0.248796 0.684261 0.96 0.672
v 0.751535 0.892296 0.248838 0.684261 0.96 0.672
v 0.759117 0.885719 0.248879 0.684261 0.96 0.672
v 0.766509 0.878927 0.248919 0.684261 0.96 0.672
v 0.773703 0.871927 0.248959 0.684261 0.96 0.672
v 0.780694 0.864724 0.248997 0.684261 0.96 0.672
v 0.709927 0.550666 0.248769 0.684261 0.96 0.672
v 0.709218 0.54067 0.248769 0.684261 0.96 0.672
v 0.708037 0.530719 0.248767 0.684261 0.96 0.672
v 0.706388 0.520835 0.248763 0.684261 0.96 0.672
v 0.704273 0.511039 0.248756 0.684261 0.96 0.672
v 0.701699 0.501354 0.248747 0.684261 0.96 0.672
v 0.69867 0.491802 0.248736 0.684261 0.96 0.672
v 0.695193 0.482403 0.248722 0.684261 0.96 0.672
v 0.691276 0.47318 0.248706 0.684261 0.96 0.672
v 0.686928 0.464151 0.248688 0.684261 0.96 0.672
v 0.682159 0.455338 0.248667 0.684261 0.96 0.672
v 0.676979 0.446759 0.248645 0.684261 0.96 0.672
v 0.671399 0.438435 0.24862 0.684261 0.96 0.672
v 0.665432 0.430384 0.248593 0.684261 0.96 0.672
v 0.659092 0.422624 0.248564 0.684261 0.96 0.672
v 0.652393 0.415171 0.248533 0.684261 0.96 0.672
v 0.645349 0.408044 0.2485 0.684261 0.96 0.672
v 0.637976 0.401257 0.248466 0.684261 0.96 0.672
v 0.630292 0.394825 0.24843 0.684261 0.96 0.672
v 0.622311 0.388764 0.248392 0.684261 0.96 0.672
v 0.614054 0.383086 0.248352 0.684261 0.96 0.672
v 0.605538 0.377805 0.248311 0.684261 0.96 0.672
v 0.596782 0.372932 0.248269 0.684261 0.96 0.672
v 0.587805 0.368477 0.248225 0.684261 0.96 0.672
v 0.578628 0.364452 0.248181 0.684261 0.96 0.672
v 0.569271 0.360864 0.248135 0.684261 0.96 0.672
v 0.559756 0.357723 0.248088 0.684261 0.96 0.672
v 0.550102 0.355034 0.24804 0.684261 0.96 0.672
v 0.540332 0.352804 0.247991 0.684261 0.96 0.672
v 0.530468 0.351038 0.247942 0.684261 0.96 0.672
v 0.520532 0.34974 0.247892 0.684261 0.96 0.672
v 0.510545 0.348912 0.247842 0.684261 0.96 0.672
v 0.500531 0.348557 0.247792 0.684261 0.96 0.672
v 0.49051 0.348675 0.247741 0.684261 0.96 0.672
v 0.480507 0.349267 0.24769 0.684261 0.96 0.672
v 0.470542 0.35033 0.247639 0.684261 0.96 0.672
v 0.460639 0.351863 0.247588 0.684261 0.96 0.672
v 0.45082 0.353861 0.247538 0.684261 0.96 0.672
v 0.441105 0.356321 0.247487 0.684261 0.96 0.672
v 0.431518 0.359237 0.247438 0.684261 0.96 0.672
v 0.422079 0.362603 0.247389 0.684261 0.96 0.672
v 0.41281 0.36641 0.24734 0.684261 0.96 0.672
v 0.403731 0.370651 0.247292 0.684261 0.96 0.672
v 0.394862 0.375316 0.247245 0.684261 0.96 0.672
v 0.386223 0.380395 0.2472 0.684261 0.96 0.672
v 0.377834 0.385876 0.247155 0.684261 0.96 0.672
v 0.369713 0.391747 0.247111 0.684261 0.96 0.672
v 0.361878 0.397995 0.247069 0.684261 0.96 0.672
v 0.354347 0.404606 0.247028 0.684261 0.96 0.672
v 0.347137 0.411565 0.246989 0.684261 0.96 0.672
v 0.340263 0.418857 0.246951 0.684261 0.96 0.672
v 0.333742 0.426466 0.246915 0.684261 0.96 0.672
v 0.327587 0.434374 0.24688 0.684261 0.96 0.672
v 0.321812 0.442564 0.246848 0.684261 0.96 0.672
v 0.316431 0.451017 0.246817 0.684261 0.96 0.672
v 0.311455 0.459715 0.246788 0.684261 0.96 0.672
v 0.306895 0.468639 0.246761 0.684261 0.96 0.672
v 0.302761 0.477768 0.246737 0.684261 0.96 0.672
v 0.299063 0.487081 0.246714 0.684261 0.96 0.672
v 0.29581 0.49656 0.246694 0.684261 0.96 0.672
v 0.293007 0.506181 0.246676 0.684261 0.96 0.672
v 0.290662 0.515923 0.24666 0.684261 0.96 0.672
v 0.28878 0.525766 0.246646 0.684261 0.96 0.672
v 0.287364 0.535687 0.246635 0.684261 0.96 0.672
v 0.286419 0.545663 0.246626 0.684261 0.96 0.672
v 0.285945 0.555673 0.246619 0.684261 0.96 0.672
v 0.285945 0.565694 0.246615 0.684261 0.96 0.672
v 0.286419 0.575704 0.246613 0.684261 0.96 0.672
v 0.287364 0.58568 0.246614 0.684261 0.96 0.672
v 0.28878 0.595601 0.246617 0.684261 0.96 0.672
v 0.290662 0.605443 0.246623 0.684261 0.96 0.672
v 0.293007 0.615186 0.246631 0.684261 0.96 0.672
v 0.29581 0.624807 0.246641 0.684261 0.96 0.672
v 0.299063 0.634286 0.246653 0.684261 0.96 0.672
v 0.302761 0.643599 0.246668 0.684261 0.96 0.672
v 0.306895 0.652728 0.246685 0.684261 0.96 0.672
v 0.311455 0.661652 0.246705 0.684261 0.96 0.672
v 0.316431 0.67035 0.246726 0.684261 0.96 0.672
v 0.321812 0.678803 0.24675 0.684261 0.96 0.672
v 0.327587 0.686993 0.246776 0.684261 0.96 0.672
v 0.333742 0.694901 0.246804 0.684261 0.96 0.672
v 0.340263 0.70251 0.246834 0.684261 0.96 0.672
v 0.347137 0.709802 0.246866 0.684261 0.96 0.672
v 0.354347 0.716761 0.246899 0.684261 0.96 0.672
v 0.361878 0.723372 0.246935 0.684261 0.96 0.672
v 0.369713 0.72962 0.246972 0.684261 0.96 0.672
v 0.377834 0.735491 0.24701 0.684261 0.96 0.672
v 0.386223 0.740972 0.247051 0.684261 0.96 0.672
v 0.394862 0.746051 0.247092 0.684261 0.96 0.672
v 0.403731 0.750716 0.247135 0.684261 0.96 0.672
v 0.41281 0.754957 0.247179 0.684261 0.96 0.672
v 0.422079 0.758765 0.247225 0.684261 0.96 0.672
v 0.431518 0.76213 0.247271 0.684261 0.96 0.672
v 0.441105 0.765046 0.247319 0.684261 0.96 0.672
v 0.45082 0.767507 0.247367 0.684261 0.96 0.672
v 0.460639 0.769505 0.247416 0.684261 0.96 0.672
v 0.470542 0.771038 0.247465 0.684261 0.96 0.672
v 0.480507 0.772101 0.247515 0.684261 0.96 0.672
v 0.49051 0.772692 0.247566 0.684261 0.96 0.672
v 0.500531 0.772811 0.247616 0.684261 0.96 0.672
v 0.510545 0.772456 0.247667 0.684261 0.96 0.672
v 0.520532 0.771628 0.247718 0.684261 0.96 0.672
v 0.530468 0.77033 0.247769 0.684261 0.96 0.672
v 0.540332 0.768564 0.24782 0.684261 0.96 0.672
v 0.550102 0.766334 0.24787 0.684261 0.96 0.672
v 0.559756 0.763645 0.24792 0.684261 0.96 0.672
v 0.569271 0.760504 0.24797 0.684261 0.96 0.672
v 0.578628 0.756916 0.248018 0.684261 0.96 0.672
v 0.587805 0.752891 0.248067 0.684261 0.96 0.672
v 0.596782 0.748436 0.248114 0.684261 0.96 0.672
v 0.605538 0.743563 0.24816 0.684261 0.96 0.672
v 0.614054 0.738282 0.248206 0.684261 0.96 0.672
v 0.622311 0.732604 0.24825 0.684261 0.96 0.672
v 0.630292 0.726543 0.248293 0.684261 0.96 0.672
v 0.637976 0.720112 0.248334 0.684261 0.96 0.672
v 0.645349 0.713325 0.248374 0.684261 0.96 0.672
v 0.652393 0.706197 0.248413 0.684261 0.96 0.672
v 0.659092 0.698745 0.24845 0.684261 0.96 0.672
v 0.665432 0.690984 0.248485 0.684261 0.96 0.672
v 0.671399 0.682933 0.248519 0.684261 0.96 0.672
v 0.676979 0.674609 0.24855 0.684261 0.96 0.672
v 0.682159 0.666031 0.24858 0.684261 0.96 0.672
v 0.686928 0.657218 0.248608 0.684261 0.96 0.672
v 0.691276 0.648189 0.248634 0.684261 0.96 0.672
v 0.695193 0.638965 0.248657 0.684261 0.96 0.672
v 0.69867 0.629567 0.248679 0.684261 0.96 0.672
v 0.701699 0.620014 0.248698 0.684261 0.96 0.672
v 0.704273 0.61033 0.248715 0.684261 0.96 0.672
v 0.706388 0.600534 0.24873 0.684261 0.96 0.672
v 0.708037 0.59065 0.248742 0.684261 0.96 0.672
v 0.709218 0.580699 0.248753 0.684261 0.96 0.672
v 0.709927 0.570703 0.24876 0.684261 0.96 0.672
v 0.710164 0.560684 0.248766 0.684261 0.96 0.672
v 0.884136 -0.00114369 0.249879 0.684261 0.96 0.672
v 0.118995 0.00142759 0.246003 0.684261 0.96 0.672
v 0.129199 0.644482 0.245789 0.684261 0.96 0.672
v 0.60672 0.996263 0.248062 0.684261 0.96 0.672
v 0.393466 1.00511 0.246978 0.684261 0.96 0.672
v 0.131848 0.773036 0.245749 0.684261 0.96 0.672
f 2 220 1
f 206 328 205
f 328 204 205
f 348 25 26
f 146 297 145
f 214 332 213
f 213 332 212
f 350 29 30
f 29 350 28
f 25 347 24
f 348 347 25
f 347 23 24
f 290 134 135
f 298 146 147
f 298 297 146
f 148 298 147
f 333 214 215
f 333 332 214
f 333 215 216
f 217 333 216
f 331 211 212
f 332 331 212
f 211 331 210
f 31 351 30
f 351 350 30
f 32 351 31
f 349 27 28
f 350 349 28
f 27 349 26
f 349 348 26
f 23 346 22
f 347 346 23
f 346 21 22
f 134 289 133
f 290 289 134
f 289 132 133
f 291 135 136
f 291 290 135
f 137 291 136
f 299 148 149
f 299 298 148
f 334 217 218
f 334 333 217
f 334 218 219
f 330 209 210
f 331 330 210
f 209 330 208
f 352 32 33
f 352 351 32
f 34 352 33
f 21 345 20
f 346 345 21
f 20 345 19
f 132 288 131
f 289 288 132
f 138 292 137
f 292 291 137
f 300 149 150
f 300 299 149
f 151 300 150
f 220 335 219
f 335 334 219
f 329 207 208
f 330 329 208
f 329 206 207
f 329 328 206
f 353 34 35
f 353 352 34
f 36 353 35
f 344 18 19
f 345 344 19
f 18 344 17
f 287 130 131
f 288 287 131
f 130 287 129
f 293 138 139
f 293 292 138
f 140 293 139
f 152 301 151
f 301 300 151
f 301 152 153
f 336 220 2
f 336 335 220
f 336 2 3
f 221 36 37
f 221 353 36
f 343 16 17
f 344 343 17
f 16 343 15
f 286 128 129
f 287 286 129
f 294 140 141
f 294 293 140
f 154 302 153
f 302 301 153
f 302 154 155
f 38 222 37
f 222 221 37
f 222 38 39
f 342 14 15
f 343 342 15
f 14 342 13
f 128 285 127
f 286 285 128
f 127 285 126
f 142 295 141
f 295 294 141
f 295 142 143
f 156 303 155
f 303 302 155
f 223 39 40
f 223 222 39
f 41 223 40
f 13 341 12
f 342 341 13
f 341 11 12
f 284 125 126
f 285 284 126
f 144 296 143
f 296 295 143
f 296 144 145
f 297 296 145
f 304 156 157
f 304 303 156
f 158 304 157
f 42 224 41
f 224 223 41
f 11 340 10
f 341 340 11
f 340 9 10
f 283 124 125
f 284 283 125
f 124 283 123
f 305 158 159
f 305 304 158
f 160 305 159
f 225 42 43
f 225 224 42
f 44 225 43
f 339 8 9
f 340 339 9
f 8 339 7
f 282 122 123
f 283 282 123
f 306 160 161
f 306 305 160
f 162 306 161
f 226 44 45
f 226 225 44
f 46 226 45
f 7 338 6
f 339 338 7
f 338 5 6
f 122 281 121
f 282 281 122
f 121 281 120
f 163 307 162
f 307 306 162
f 307 163 164
f 227 46 47
f 227 226 46
f 337 4 5
f 338 337 5
f 4 337 3
f 337 336 3
f 280 119 120
f 281 280 120
f 165 308 164
f 308 307 164
f 166 308 165
f 48 228 47
f 228 227 47
f 49 228 48
f 119 279 118
f 280 279 119
f 309 166 167
f 309 308 166
f 229 49 50
f 229 228 49
f 51 229 50
f 278 117 118
f 279 278 118
f 117 278 116
f 168 310 167
f 310 309 167
f 310 168 169
f 230 51 52
f 230 229 51
f 277 115 116
f 278 277 116
f 170 311 169
f 311 310 169
f 311 170 171
f 53 231 52
f 231 230 52
f 231 53 54
f 115 276 114
f 277 276 115
f 172 312 171
f 312 311 171
f 312 172 173
f 55 232 54
f 232 231 54
f 114 275 113
f 276 275 114
f 275 112 113
f 174 313 173
f 313 312 173
f 313 174 175
f 56 233 55
f 233 232 55
f 233 56 57
f 112 274 111
f 275 274 112
f 176 314 175
f 314 313 175
f 177 314 176
f 58 234 57
f 234 233 57
f 273 110 111
f 274 273 111
f 315 177 178
f 315 314 177
f 179 315 178
f 82 251 81
f 110 272 109
f 273 272 110
f 272 108 109
f 316 179 180
f 316 315 179
f 181 316 180
f 252 83 84
f 83 252 82
f 252 251 82
f 250 80 81
f 251 250 81
f 108 271 107
f 272 271 108
f 317 181 182
f 317 316 181
f 183 317 182
f 85 253 84
f 253 252 84
f 80 249 79
f 250 249 80
f 249 78 79
f 270 106 107
f 271 270 107
f 184 318 183
f 318 317 183
f 318 184 185
f 254 85 86
f 254 253 85
f 78 248 77
f 249 248 78
f 106 269 105
f 270 269 106
f 269 104 105
f 186 319 185
f 319 318 185
f 319 186 187
f 87 255 86
f 255 254 86
f 247 76 77
f 248 247 77
f 76 247 75
f 104 268 103
f 269 268 104
f 320 187 188
f 320 319 187
f 189 320 188
f 256 87 88
f 256 255 87
f 89 256 88
f 75 246 74
f 247 246 75
f 103 267 102
f 268 267 103
f 321 189 190
f 321 320 189
f 321 190 191
f 257 89 90
f 257 256 89
f 245 73 74
f 246 245 74
f 266 101 102
f 267 266 102
f 101 266 100
f 192 322 191
f 322 321 191
f 322 192 193
f 258 90 91
f 258 257 90
f 73 244 72
f 245 244 73
f 244 71 72
f 100 265 99
f 266 265 100
f 323 193 194
f 323 322 193
f 195 323 194
f 92 259 91
f 259 258 91
f 259 92 93
f 71 243 70
f 244 243 71
f 264 98 99
f 265 264 99
f 324 195 196
f 324 323 195
f 197 324 196
f 324 197 198
f 94 260 93
f 260 259 93
f 242 69 70
f 243 242 70
f 98 263 97
f 264 263 98
f 199 325 198
f 325 324 198
f 325 199 200
f 261 94 95
f 261 260 94
f 241 68 69
f 242 241 69
f 68 241 67
f 262 96 97
f 263 262 97
f 96 262 95
f 262 261 95
f 201 326 200
f 326 325 200
f 326 201 202
f 240 66 67
f 241 240 67
f 203 327 202
f 327 326 202
f 327 203 204
f 328 327 204
f 66 239 65
f 240 239 66
f 65 239 64
f 238 63 64
f 239 238 64
f 63 237 62
f 238 237 63
f 237 61 62
f 61 236 60
f 237 236 61
f 235 59 60
f 236 235 60
f 59 235 58
f 235 234 58
f 356 354 355
f 359 358 356
f 357 1 356
f 358 357 356
