# Created by Open3D 
# object name: face_00001
# number of vertices: 11
# number of triangles: 9
v 0.606746 0.0482931 0.0410689 0.672 0.756037 0.96
v 0.632058 0.0495634 0.206669 0.672 0.756037 0.96
v 0.672204 0.0515781 0.469319 0.672 0.756037 0.96
v 0.708773 0.0534134 0.708569 0.672 0.756037 0.96
v 0.719821 0.0539678 0.780846 0.672 0.756037 0.96
v 0.753048 0.0556353 0.998228 0.672 0.756037 0.96
v 0.74658 0.94382 0.997841 0.672 0.756037 0.96
v 0.70319 0.945273 0.714143 0.672 0.756037 0.96
v 0.665357 0.94657 0.466773 0.672 0.756037 0.96
v 0.625761 0.94791 0.207881 0.672 0.756037 0.96
v 0.603397 0.948667 0.0616552 0.672 0.756037 0.96
f 2 11 1
f 9 2 3
f 4 9 3
f 7 5 6
f 2 10 11
f 9 10 2
f 8 9 4
f 5 8 4
f 8 5 7
