# Created by Open3D 
# object name: face_00009
# number of vertices: 9
# number of triangles: 9
v 0.516256 0.0559233 0.69519 0.672 0.852335 0.96
v 0.460865 0.0544697 0.468576 0.672 0.852335 0.96
v 0.39774 0.052813 0.210319 0.672 0.852335 0.96
v 0.350693 0.0515784 0.0178419 0.672 0.852335 0.96
v 0.345147 0.950445 0.0381933 0.672 0.852335 0.96
v 0.387554 0.949444 0.211589 0.672 0.852335 0.96
v 0.449781 0.947975 0.46602 0.672 0.852335 0.96
v 0.506909 0.946626 0.699603 0.672 0.852335 0.96
v 0.508193 0.875917 0.701471 0.672 0.852335 0.96
f 3 5 4
f 3 6 5
f 2 1 9
f 8 7 9
f 7 2 9
f 2 7 3
f 7 6 3
f 6 7 5
f 9 8 9
