# Created by Open3D 
# object name: face_00006
# number of vertices: 10
# number of triangles: 9
v 0.989585 0.945568 0.202216 0.743776 0.672 0.96
v 0.990292 0.0445953 0.201088 0.743776 0.672 0.96
v 0.632058 0.0495634 0.206669 0.743776 0.672 0.96
v 0.625761 0.94791 0.207881 0.743776 0.672 0.96
v 0.182645 0.0557961 0.21367 0.743776 0.672 0.96
v 0.175828 0.950807 0.214886 0.743776 0.672 0.96
v 0.387554 0.949444 0.211589 0.743776 0.672 0.96
v 0.39774 0.052813 0.210319 0.743776 0.672 0.96
v 0.0229491 0.951791 0.217266 0.743776 0.672 0.96
v 0.0243744 0.057991 0.216135 0.743776 0.672 0.96
f 4 3 1
f 1 3 2
f 4 8 3
f 7 8 4
f 5 7 6
f 8 7 5
f 4 3 2
f 10 6 9
f 10 5 6
