# Created by Open3D 
# object name: face_00008
# number of vertices: 19
# number of triangles: 54
v 0.176106 0.949758 0.465063 0.96 0.672 0.768298
v 0.988029 0.942417 0.957855 0.96 0.672 0.768298
v 0.74658 0.94382 0.997841 0.96 0.672 0.768298
v 0.703193 0.945289 0.714143 0.96 0.672 0.768298
v 0.449781 0.947975 0.46602 0.96 0.672 0.768298
v 0.175828 0.950807 0.214886 0.96 0.672 0.768298
v 0.986529 0.943357 0.735631 0.96 0.672 0.768298
v 0.387554 0.949444 0.211589 0.96 0.672 0.768298
v 0.506909 0.946626 0.699603 0.96 0.672 0.768298
v 0.345147 0.950445 0.0381933 0.96 0.672 0.768298
v 0.175615 0.951612 0.0227913 0.96 0.672 0.768298
v 0.0202832 0.952681 0.00867948 0.96 0.672 0.768298
v 0.0229491 0.951791 0.217266 0.96 0.672 0.768298
v 0.625761 0.94791 0.207881 0.96 0.672 0.768298
v 0.665357 0.94657 0.466773 0.96 0.672 0.768298
v 0.984804 0.944488 0.46789 0.96 0.672 0.768298
v 0.989585 0.945568 0.202216 0.96 0.672 0.768298
v 0.603397 0.948667 0.0616552 0.96 0.672 0.768298
v 0.982258 0.946055 0.0973455 0.96 0.672 0.768298
f 2 7 3
f 7 4 3
f 8 1 5
f 8 6 1
f 7 4 2
f 13 11 12
f 6 11 13
f 15 14 5
f 9 15 5
f 15 9 4
f 14 8 5
f 6 10 11
f 8 10 6
f 14 15 17
f 15 16 17
f 4 16 15
f 16 4 7
f 14 8 15
f 19 14 17
f 8 14 18
f 5 4 15
f 17 16 7
f 8 6 5
f 8 5 5
f 8 5 16
f 8 16 17
f 8 17 19
f 8 19 18
f 8 18 10
f 8 10 11
f 8 11 12
f 8 12 13
f 8 13 6
f 8 6 8
f 14 19 18
f 14 16 17
f 16 14 4
f 8 17 14
f 8 5 9
f 8 9 4
f 8 4 15
f 8 18 18
f 8 18 11
f 4 9 7
f 11 6 8
f 3 4 2
f 3 2 2
f 3 4 3
f 4 15 7
f 4 7 7
f 4 15 4
f 15 5 5
f 15 14 15
f 19 17 19
