# Created by Open3D 
# object name: face_00007
# number of vertices: 8
# number of triangles: 8
v 0.665357 0.94657 0.466773 0.684261 0.96 0.672
v 0.984804 0.944488 0.46789 0.684261 0.96 0.672
v 0.982509 0.0473326 0.47041 0.684261 0.96 0.672
v 0.672204 0.0515781 0.469319 0.684261 0.96 0.672
v 0.449781 0.947975 0.46602 0.684261 0.96 0.672
v 0.460865 0.0544697 0.468576 0.684261 0.96 0.672
v 0.182901 0.0582728 0.467598 0.684261 0.96 0.672
v 0.176106 0.949758 0.465063 0.684261 0.96 0.672
f 4 3 2
f 1 4 2
f 6 1 5
f 1 4 3
f 6 4 1
f 5 8 7
f 6 5 7
f 7 6 7
