# Created by Open3D 
# object name: face_00003
# number of vertices: 21
# number of triangles: 98
v 0.182645 0.0557961 0.21367 0.96 0.672 0.924112
v 0.182901 0.0582728 0.467598 0.96 0.672 0.924112
v 0.460865 0.0544697 0.468576 0.96 0.672 0.924112
v 0.516256 0.0559233 0.69519 0.96 0.672 0.924112
v 0.708773 0.0534134 0.708569 0.96 0.672 0.924112
v 0.719821 0.0539678 0.780846 0.96 0.672 0.924112
v 0.753048 0.0556353 0.998228 0.96 0.672 0.924112
v 0.985746 0.0520672 0.959696 0.96 0.672 0.924112
v 0.984712 0.0505544 0.803368 0.96 0.672 0.924112
v 0.984211 0.0498223 0.727711 0.96 0.672 0.924112
v 0.982509 0.0473326 0.47041 0.96 0.672 0.924112
v 0.990292 0.0445953 0.201088 0.96 0.672 0.924112
v 0.980883 0.0434927 0.0749973 0.96 0.672 0.924112
v 0.606746 0.0482931 0.0410689 0.96 0.672 0.924112
v 0.350693 0.0515784 0.0178419 0.96 0.672 0.924112
v 0.182433 0.0537372 0.00257877 0.96 0.672 0.924112
v 0.0214634 0.0558025 -0.0120231 0.96 0.672 0.924112
v 0.0243744 0.057991 0.216135 0.96 0.672 0.924112
v 0.39774 0.052813 0.210319 0.96 0.672 0.924112
v 0.632058 0.0495634 0.206669 0.96 0.672 0.924112
v 0.672204 0.0515781 0.469319 0.96 0.672 0.924112
f 3 2 1
f 4 3 1
f 5 4 1
f 6 5 1
f 7 6 1
f 8 7 1
f 9 8 1
f 10 9 1
f 11 10 1
f 12 11 1
f 13 12 1
f 14 13 1
f 15 14 1
f 16 15 1
f 17 16 1
f 18 17 1
f 1 18 1
f 2 19 3
f 1 19 2
f 20 14 1
f 19 20 1
f 15 19 1
f 9 6 1
f 21 3 1
f 5 21 1
f 20 12 1
f 16 18 17
f 1 18 16
f 10 5 1
f 21 11 1
f 20 21 1
f 19 3 1
f 9 8 7
f 6 9 7
f 5 6 4
f 21 3 21
f 21 21 19
f 21 19 15
f 21 15 14
f 21 14 13
f 21 13 12
f 21 12 11
f 21 11 10
f 21 10 9
f 21 9 8
f 21 8 7
f 21 7 6
f 21 6 5
f 21 5 4
f 21 4 3
f 5 3 21
f 7 7 21
f 9 7 21
f 3 19 21
f 4 3 4
f 10 4 4
f 11 10 4
f 12 11 4
f 13 12 4
f 14 13 4
f 15 14 4
f 19 15 4
f 3 19 4
f 6 6 21
f 10 6 21
f 20 14 21
f 19 20 21
f 20 12 21
f 21 10 5
f 21 21 14
f 20 14 4
f 19 20 4
f 11 10 5
f 6 10 9
f 10 6 5
f 21 11 5
f 14 13 20
f 19 15 14
f 20 12 4
f 21 9 6
f 21 11 4
f 20 21 4
f 12 20 13
f 21 21 12
f 11 21 20
f 20 19 15
f 20 15 14
f 20 12 12
f 20 21 20
f 3 20 21
f 19 20 3
f 21 21 10
f 13 14 15
f 8 7 7
f 8 9 8
f 9 6 6
f 9 10 9
f 12 13 12
