# Created by Open3D 
# object name: face_00002
# number of vertices: 12
# number of triangles: 15
v 0.985746 0.0520672 0.959696 0.840075 0.96 0.672
v 0.984712 0.0505544 0.803368 0.840075 0.96 0.672
v 0.984211 0.0498223 0.727711 0.840075 0.96 0.672
v 0.982509 0.0473326 0.47041 0.840075 0.96 0.672
v 0.980727 0.0446199 0.201151 0.840075 0.96 0.672
v 0.979892 0.0434953 0.0750039 0.840075 0.96 0.672
v 0.981965 0.802431 0.0927155 0.840075 0.96 0.672
v 0.982366 0.946045 0.0973447 0.840075 0.96 0.672
v 0.983056 0.945585 0.202259 0.840075 0.96 0.672
v 0.984804 0.944488 0.46789 0.840075 0.96 0.672
v 0.986591 0.95271 0.73567 0.840075 0.96 0.672
v 0.988029 0.942417 0.957855 0.840075 0.96 0.672
f 3 10 11
f 10 3 4
f 12 2 11
f 2 3 11
f 2 12 1
f 7 10 4
f 7 9 10
f 5 7 4
f 9 7 8
f 7 5 6
f 9 4 5
f 10 4 9
f 4 2 1
f 5 7 9
f 7 8 7
