# Created by Open3D 
# object name: face_00004
# number of vertices: 11
# number of triangles: 11
v 0.980882 0.0434925 0.0750075 0.672 0.96 0.911851
v 0.981965 0.802431 0.0927155 0.672 0.96 0.911851
v 0.982373 0.946075 0.0960855 0.672 0.96 0.911851
v 0.603397 0.948667 0.0616552 0.672 0.96 0.911851
v 0.345147 0.950445 0.0381933 0.672 0.96 0.911851
v 0.175615 0.951612 0.0227913 0.672 0.96 0.911851
v 0.0202832 0.952681 0.00867948 0.672 0.96 0.911851
v 0.0214634 0.0558025 -0.0120231 0.672 0.96 0.911851
v 0.182433 0.0537372 0.00257877 0.672 0.96 0.911851
v 0.350693 0.0515784 0.0178419 0.672 0.96 0.911851
v 0.606746 0.0482931 0.0410689 0.672 0.96 0.911851
f 11 2 1
f 2 4 3
f 4 2 11
f 6 8 7
f 10 4 11
f 10 5 4
f 9 6 5
f 10 9 5
f 6 9 8
f 6 9 7
f 1 11 3
