# Created by Open3D 
# object name: lines
# number of vertices: 756
# number of triangles: 1440
v 0.0777869 0.511931 0.998558 0 0 1
v 0.0699836 0.508675 0.000891803 0 0 1
v 0.0827867 0.511931 0.998519 0 0 1
v 0.0813223 0.515467 0.998519 0 0 1
v 0.0777868 0.516931 0.998542 0 0 1
v 0.0742514 0.515467 0.998574 0 0 1
v 0.072787 0.511931 0.998597 0 0 1
v 0.0742515 0.508396 0.998598 0 0 1
v 0.077787 0.506931 0.998575 0 0 1
v 0.0813224 0.508396 0.998542 0 0 1
v 0.0808359 0.511117 0.749103 0 0 1
v 0.0793714 0.514653 0.749103 0 0 1
v 0.075836 0.516117 0.749125 0 0 1
v 0.0723006 0.514653 0.749158 0 0 1
v 0.0708362 0.511117 0.749181 0 0 1
v 0.0723007 0.507582 0.749181 0 0 1
v 0.0758361 0.506117 0.749158 0 0 1
v 0.0793715 0.507582 0.749126 0 0 1
v 0.0788851 0.510303 0.499686 0 0 1
v 0.0774206 0.513839 0.499686 0 0 1
v 0.0738852 0.515303 0.499709 0 0 1
v 0.0703498 0.513839 0.499741 0 0 1
v 0.0688854 0.510303 0.499764 0 0 1
v 0.0703498 0.506768 0.499764 0 0 1
v 0.0738853 0.505303 0.499741 0 0 1
v 0.0774207 0.506768 0.499709 0 0 1
v 0.0769342 0.509489 0.250269 0 0 1
v 0.0754698 0.513025 0.250269 0 0 1
v 0.0719343 0.514489 0.250292 0 0 1
v 0.0683989 0.513025 0.250325 0 0 1
v 0.0669345 0.509489 0.250348 0 0 1
v 0.068399 0.505954 0.250348 0 0 1
v 0.0719345 0.504489 0.250325 0 0 1
v 0.0754699 0.505954 0.250292 0 0 1
v 0.0749834 0.508675 0.000852697 0 0 1
v 0.0735189 0.512211 0.000852613 0 0 1
v 0.0699835 0.513675 0.000875486 0 0 1
v 0.0664481 0.512211 0.000907918 0 0 1
v 0.0649837 0.508675 0.00093091 0 0 1
v 0.0664482 0.50514 0.000930994 0 0 1
v 0.0699836 0.503675 0.000908121 0 0 1
v 0.073519 0.50514 0.000875689 0 0 1
v 0.286779 0.876655 0.0108428 0 0 1
v 0.290107 0.872446 0.995095 0 0 1
v 0.287933 0.88152 0.0108597 0 0 1
v 0.291035 0.879279 0.0108396 0 0 1
v 0.291644 0.875501 0.0108214 0 0 1
v 0.289403 0.872399 0.0108157 0 0 1
v 0.285625 0.87179 0.0108259 0 0 1
v 0.282523 0.87403 0.0108459 0 0 1
v 0.281914 0.877808 0.0108641 0 0 1
v 0.284155 0.88091 0.0108698 0 0 1
v 0.288765 0.880467 0.256923 0 0 1
v 0.291867 0.878227 0.256903 0 0 1
v 0.292476 0.874449 0.256884 0 0 1
v 0.290235 0.871346 0.256879 0 0 1
v 0.286457 0.870737 0.256889 0 0 1
v 0.283355 0.872978 0.256909 0 0 1
v 0.282746 0.876756 0.256927 0 0 1
v 0.284987 0.879858 0.256933 0 0 1
v 0.289597 0.879415 0.502986 0 0 1
v 0.292699 0.877174 0.502966 0 0 1
v 0.293308 0.873396 0.502947 0 0 1
v 0.291067 0.870294 0.502942 0 0 1
v 0.287289 0.869685 0.502952 0 0 1
v 0.284187 0.871926 0.502972 0 0 1
v 0.283578 0.875704 0.50299 0 0 1
v 0.285819 0.878806 0.502996 0 0 1
v 0.290429 0.878363 0.749049 0 0 1
v 0.293531 0.876122 0.749029 0 0 1
v 0.29414 0.872344 0.74901 0 0 1
v 0.291899 0.869242 0.749005 0 0 1
v 0.288121 0.868633 0.749015 0 0 1
v 0.285019 0.870874 0.749035 0 0 1
v 0.28441 0.874652 0.749053 0 0 1
v 0.286651 0.877754 0.749059 0 0 1
v 0.29126 0.877311 0.995112 0 0 1
v 0.294363 0.87507 0.995092 0 0 1
v 0.294972 0.871292 0.995074 0 0 1
v 0.292731 0.86819 0.995068 0 0 1
v 0.288953 0.867581 0.995078 0 0 1
v 0.285851 0.869821 0.995098 0 0 1
v 0.285242 0.873599 0.995116 0 0 1
v 0.287482 0.876702 0.995122 0 0 1
v 0.0699836 0.508675 0.000891803 0 0 1
v 0.286779 0.876655 0.0108428 0 0 1
v 0.0736652 0.506438 0.00342915 0 0 1
v 0.0710046 0.507943 0.00573133 0 0 1
v 0.0677459 0.509877 0.00519858 0 0 1
v 0.0657979 0.511107 0.00214298 0 0 1
v 0.0663019 0.510913 -0.00164554 0 0 1
v 0.0689625 0.509408 -0.00394772 0 0 1
v 0.0722212 0.507473 -0.00341497 0 0 1
v 0.0741692 0.506243 -0.000359374 0 0 1
v 0.127864 0.598432 0.00591689 0 0 1
v 0.125204 0.599938 0.00821907 0 0 1
v 0.121945 0.601872 0.00768632 0 0 1
v 0.119997 0.603102 0.00463072 0 0 1
v 0.120501 0.602908 0.0008422 0 0 1
v 0.123161 0.601403 -0.00145998 0 0 1
v 0.12642 0.599468 -0.000927232 0 0 1
v 0.128368 0.598238 0.00212837 0 0 1
v 0.182063 0.690427 0.00840463 0 0 1
v 0.179402 0.691932 0.0107068 0 0 1
v 0.176144 0.693867 0.0101741 0 0 1
v 0.174196 0.695097 0.00711846 0 0 1
v 0.1747 0.694903 0.00332994 0 0 1
v 0.17736 0.693397 0.00102776 0 0 1
v 0.180619 0.691463 0.00156051 0 0 1
v 0.182567 0.690233 0.00461611 0 0 1
v 0.236262 0.782422 0.0108924 0 0 1
v 0.233601 0.783927 0.0131945 0 0 1
v 0.230343 0.785862 0.0126618 0 0 1
v 0.228395 0.787092 0.0096062 0 0 1
v 0.228899 0.786897 0.00581768 0 0 1
v 0.231559 0.785392 0.0035155 0 0 1
v 0.234818 0.783458 0.00404825 0 0 1
v 0.236766 0.782228 0.00710385 0 0 1
v 0.290461 0.874417 0.0133801 0 0 1
v 0.2878 0.875922 0.0156823 0 0 1
v 0.284541 0.877856 0.0151495 0 0 1
v 0.282594 0.879087 0.0120939 0 0 1
v 0.283097 0.878892 0.00830542 0 0 1
v 0.285758 0.877387 0.00600324 0 0 1
v 0.289017 0.875453 0.00653599 0 0 1
v 0.290965 0.874222 0.00959159 0 0 1
v 0.290107 0.872446 0.995095 0 0 1
v 0.0777869 0.511931 0.998558 0 0 1
v 0.293808 0.870241 0.992558 0 0 1
v 0.291165 0.871776 0.990254 0 0 1
v 0.287902 0.873703 0.990787 0 0 1
v 0.28593 0.874893 0.993843 0 0 1
v 0.286405 0.87465 0.997632 0 0 1
v 0.289048 0.873116 0.999935 0 0 1
v 0.292311 0.871189 0.999403 0 0 1
v 0.294283 0.869998 0.996347 0 0 1
v 0.240728 0.780113 0.993424 0 0 1
v 0.238085 0.781647 0.99112 0 0 1
v 0.234822 0.783574 0.991653 0 0 1
v 0.23285 0.784765 0.994709 0 0 1
v 0.233325 0.784522 0.998498 0 0 1
v 0.235968 0.782987 1.0008 0 0 1
v 0.239231 0.78106 1.00027 0 0 1
v 0.241203 0.77987 0.997213 0 0 1
v 0.187648 0.689984 0.994289 0 0 1
v 0.185005 0.691518 0.991986 0 0 1
v 0.181742 0.693445 0.992518 0 0 1
v 0.17977 0.694636 0.995574 0 0 1
v 0.180245 0.694393 0.999364 0 0 1
v 0.182888 0.692858 1.00167 0 0 1
v 0.186151 0.690932 1.00113 0 0 1
v 0.188123 0.689741 0.998079 0 0 1
v 0.134569 0.599855 0.995155 0 0 1
v 0.131926 0.60139 0.992852 0 0 1
v 0.128662 0.603317 0.993384 0 0 1
v 0.126691 0.604507 0.99644 0 0 1
v 0.127165 0.604264 1.00023 0 0 1
v 0.129808 0.60273 1.00253 0 0 1
v 0.133071 0.600803 1.002 0 0 1
v 0.135043 0.599612 0.998945 0 0 1
v 0.0814886 0.509727 0.996021 0 0 1
v 0.0788456 0.511261 0.993718 0 0 1
v 0.0755824 0.513188 0.99425 0 0 1
v 0.0736106 0.514379 0.997306 0 0 1
v 0.0740852 0.514136 1.0011 0 0 1
v 0.0767282 0.512601 1.0034 0 0 1
v 0.0799913 0.510674 1.00287 0 0 1
v 0.0819632 0.509484 0.999811 0 0 1
v 0.280488 0.129529 -0.00606393 0 0 1
v 0.0699836 0.508675 0.000891803 0 0 1
v 0.284291 0.131685 -0.00849067 0 0 1
v 0.284702 0.131844 -0.00468923 0 0 1
v 0.282644 0.130646 -0.00169306 0 0 1
v 0.279324 0.128795 -0.00125729 0 0 1
v 0.276685 0.127373 -0.00363719 0 0 1
v 0.276275 0.127215 -0.00743864 0 0 1
v 0.278332 0.128413 -0.0104348 0 0 1
v 0.281653 0.130264 -0.0108706 0 0 1
v 0.231665 0.226472 -0.00675174 0 0 1
v 0.232076 0.22663 -0.00295029 0 0 1
v 0.230018 0.225433 4.58713e-05 0 0 1
v 0.226698 0.223581 0.000481639 0 0 1
v 0.224059 0.22216 -0.00189826 0 0 1
v 0.223649 0.222002 -0.0056997 0 0 1
v 0.225706 0.223199 -0.00869587 0 0 1
v 0.229027 0.225051 -0.00913163 0 0 1
v 0.179039 0.321258 -0.00501281 0 0 1
v 0.17945 0.321417 -0.00121136 0 0 1
v 0.177392 0.320219 0.00178481 0 0 1
v 0.174071 0.318368 0.00222057 0 0 1
v 0.171433 0.316946 -0.000159323 0 0 1
v 0.171022 0.316788 -0.00396077 0 0 1
v 0.17308 0.317985 -0.00695693 0 0 1
v 0.176401 0.319837 -0.0073927 0 0 1
v 0.126413 0.416045 -0.00327387 0 0 1
v 0.126823 0.416203 0.000527576 0 0 1
v 0.124766 0.415006 0.00352374 0 0 1
v 0.121445 0.413154 0.00395951 0 0 1
v 0.118807 0.411733 0.00157961 0 0 1
v 0.118396 0.411575 -0.00222184 0 0 1
v 0.120454 0.412772 -0.005218 0 0 1
v 0.123774 0.414624 -0.00565377 0 0 1
v 0.0737865 0.510831 -0.00153494 0 0 1
v 0.0741972 0.510989 0.00226651 0 0 1
v 0.0721395 0.509792 0.00526267 0 0 1
v 0.0688189 0.50794 0.00569844 0 0 1
v 0.0661806 0.506519 0.00331854 0 0 1
v 0.0657699 0.506361 -0.000482903 0 0 1
v 0.0678276 0.507558 -0.00347907 0 0 1
v 0.0711482 0.50941 -0.00391483 0 0 1
v 0.285575 0.137812 0.999439 0 0 1
v 0.280488 0.129529 -0.00606393 0 0 1
v 0.290575 0.137812 0.999414 0 0 1
v 0.289111 0.141348 0.999392 0 0 1
v 0.285575 0.142812 0.999398 0 0 1
v 0.28204 0.141348 0.999428 0 0 1
v 0.280575 0.137812 0.999464 0 0 1
v 0.28204 0.134277 0.999486 0 0 1
v 0.285575 0.132812 0.99948 0 0 1
v 0.289111 0.134277 0.99945 0 0 1
v 0.289304 0.135741 0.748038 0 0 1
v 0.287839 0.139277 0.748016 0 0 1
v 0.284304 0.140741 0.748022 0 0 1
v 0.280768 0.139277 0.748052 0 0 1
v 0.279304 0.135742 0.748089 0 0 1
v 0.280768 0.132206 0.74811 0 0 1
v 0.284304 0.130742 0.748105 0 0 1
v 0.287839 0.132206 0.748075 0 0 1
v 0.288032 0.133671 0.496662 0 0 1
v 0.286567 0.137206 0.496641 0 0 1
v 0.283032 0.138671 0.496646 0 0 1
v 0.279496 0.137206 0.496676 0 0 1
v 0.278032 0.133671 0.496713 0 0 1
v 0.279496 0.130135 0.496735 0 0 1
v 0.283032 0.128671 0.496729 0 0 1
v 0.286567 0.130135 0.496699 0 0 1
v 0.28676 0.1316 0.245287 0 0 1
v 0.285296 0.135135 0.245265 0 0 1
v 0.28176 0.1366 0.245271 0 0 1
v 0.278225 0.135136 0.245301 0 0 1
v 0.27676 0.1316 0.245337 0 0 1
v 0.278225 0.128065 0.245359 0 0 1
v 0.28176 0.1266 0.245353 0 0 1
v 0.285296 0.128065 0.245323 0 0 1
v 0.285488 0.129529 -0.00608923 0 0 1
v 0.284024 0.133065 -0.00611094 0 0 1
v 0.280488 0.134529 -0.00610512 0 0 1
v 0.276953 0.133065 -0.00607517 0 0 1
v 0.275488 0.129529 -0.00603864 0 0 1
v 0.276953 0.125994 -0.00601692 0 0 1
v 0.280489 0.12453 -0.00602275 0 0 1
v 0.284024 0.125994 -0.00605269 0 0 1
v 0.0777869 0.511931 0.998558 0 0 1
v 0.285575 0.137812 0.999439 0 0 1
v 0.0816057 0.514058 1.00099 0 0 1
v 0.081991 0.514263 0.997184 0 0 1
v 0.0799136 0.513102 0.994187 0 0 1
v 0.0765904 0.511255 0.993751 0 0 1
v 0.0739681 0.509805 0.996131 0 0 1
v 0.0735828 0.5096 0.999932 0 0 1
v 0.0756602 0.51076 1.00293 0 0 1
v 0.0789834 0.512607 1.00337 0 0 1
v 0.133553 0.420528 1.00121 0 0 1
v 0.133938 0.420733 0.997404 0 0 1
v 0.131861 0.419572 0.994407 0 0 1
v 0.128538 0.417726 0.993971 0 0 1
v 0.125915 0.416275 0.996351 0 0 1
v 0.12553 0.41607 1.00015 0 0 1
v 0.127607 0.417231 1.00315 0 0 1
v 0.130931 0.419077 1.00359 0 0 1
v 0.1855 0.326998 1.00143 0 0 1
v 0.185885 0.327204 0.997625 0 0 1
v 0.183808 0.326043 0.994628 0 0 1
v 0.180485 0.324196 0.994191 0 0 1
v 0.177862 0.322745 0.996571 0 0 1
v 0.177477 0.32254 1.00037 0 0 1
v 0.179554 0.323701 1.00337 0 0 1
v 0.182878 0.325548 1.00381 0 0 1
v 0.237447 0.233469 1.00165 0 0 1
v 0.237832 0.233674 0.997845 0 0 1
v 0.235755 0.232513 0.994848 0 0 1
v 0.232432 0.230666 0.994411 0 0 1
v 0.229809 0.229215 0.996791 0 0 1
v 0.229424 0.22901 1.00059 0 0 1
v 0.231502 0.230171 1.00359 0 0 1
v 0.234825 0.232018 1.00403 0 0 1
v 0.289394 0.139939 1.00187 0 0 1
v 0.289779 0.140144 0.998065 0 0 1
v 0.287702 0.138983 0.995068 0 0 1
v 0.284379 0.137136 0.994632 0 0 1
v 0.281757 0.135686 0.997011 0 0 1
v 0.281371 0.13548 1.00081 0 0 1
v 0.283449 0.136641 1.00381 0 0 1
v 0.286772 0.138488 1.00425 0 0 1
v 0.286779 0.876655 0.0108428 0 0 1
v 0.715332 0.873941 0.0140383 0 0 1
v 0.286742 0.876686 0.0158425 0 0 1
v 0.286775 0.880212 0.0143557 0 0 1
v 0.286811 0.881654 0.0108111 0 0 1
v 0.286828 0.880167 0.00728502 0 0 1
v 0.286816 0.876623 0.00584301 0 0 1
v 0.286783 0.873097 0.00732978 0 0 1
v 0.286747 0.871655 0.0108744 0 0 1
v 0.28673 0.873142 0.0144005 0 0 1
v 0.39388 0.876008 0.0166414 0 0 1
v 0.393914 0.879534 0.0151546 0 0 1
v 0.393949 0.880976 0.01161 0 0 1
v 0.393966 0.879489 0.00808389 0 0 1
v 0.393954 0.875944 0.00664188 0 0 1
v 0.393921 0.872418 0.00812866 0 0 1
v 0.393885 0.870976 0.0116733 0 0 1
v 0.393869 0.872463 0.0151994 0 0 1
v 0.501019 0.87533 0.0174403 0 0 1
v 0.501052 0.878856 0.0159535 0 0 1
v 0.501087 0.880298 0.0124089 0 0 1
v 0.501104 0.878811 0.00888277 0 0 1
v 0.501093 0.875266 0.00744075 0 0 1
v 0.501059 0.87174 0.00892753 0 0 1
v 0.501024 0.870298 0.0124722 0 0 1
v 0.501007 0.871785 0.0159983 0 0 1
v 0.608157 0.874652 0.0182392 0 0 1
v 0.60819 0.878178 0.0167524 0 0 1
v 0.608226 0.879619 0.0132077 0 0 1
v 0.608243 0.878133 0.00968164 0 0 1
v 0.608231 0.874588 0.00823963 0 0 1
v 0.608197 0.871062 0.00972641 0 0 1
v 0.608162 0.86962 0.013271 0 0 1
v 0.608145 0.871107 0.0167971 0 0 1
v 0.715295 0.873973 0.019038 0 0 1
v 0.715328 0.877499 0.0175512 0 0 1
v 0.715364 0.878941 0.0140066 0 0 1
v 0.715381 0.877454 0.0104805 0 0 1
v 0.715369 0.873909 0.0090385 0 0 1
v 0.715336 0.870383 0.0105253 0 0 1
v 0.7153 0.868942 0.0140699 0 0 1
v 0.715283 0.870429 0.017596 0 0 1
v 0.707176 0.86983 0.992467 0 0 1
v 0.290107 0.872446 0.995095 0 0 1
v 0.707145 0.869861 0.987467 0 0 1
v 0.707176 0.873387 0.988954 0 0 1
v 0.707208 0.874829 0.992498 0 0 1
v 0.707221 0.873343 0.996025 0 0 1
v 0.707207 0.869798 0.997467 0 0 1
v 0.707176 0.866272 0.99598 0 0 1
v 0.707145 0.86483 0.992436 0 0 1
v 0.707132 0.866317 0.988909 0 0 1
v 0.602877 0.870515 0.988124 0 0 1
v 0.602909 0.874041 0.989611 0 0 1
v 0.60294 0.875483 0.993155 0 0 1
v 0.602953 0.873997 0.996682 0 0 1
v 0.60294 0.870452 0.998124 0 0 1
v 0.602909 0.866926 0.996637 0 0 1
v 0.602877 0.865484 0.993093 0 0 1
v 0.602864 0.866971 0.989566 0 0 1
v 0.49861 0.871169 0.988781 0 0 1
v 0.498642 0.874695 0.990268 0 0 1
v 0.498673 0.876137 0.993812 0 0 1
v 0.498686 0.874651 0.997339 0 0 1
v 0.498673 0.871106 0.998781 0 0 1
v 0.498641 0.86758 0.997294 0 0 1
v 0.49861 0.866138 0.99375 0 0 1
v 0.498597 0.867625 0.990223 0 0 1
v 0.394343 0.871823 0.989438 0 0 1
v 0.394374 0.875349 0.990925 0 0 1
v 0.394406 0.876791 0.994469 0 0 1
v 0.394418 0.875305 0.997995 0 0 1
v 0.394405 0.87176 0.999438 0 0 1
v 0.394374 0.868234 0.997951 0 0 1
v 0.394342 0.866792 0.994407 0 0 1
v 0.39433 0.868279 0.99088 0 0 1
v 0.290075 0.872477 0.990095 0 0 1
v 0.290107 0.876003 0.991582 0 0 1
v 0.290138 0.877445 0.995126 0 0 1
v 0.290151 0.875959 0.998652 0 0 1
v 0.290138 0.872414 1.00009 0 0 1
v 0.290106 0.868888 0.998608 0 0 1
v 0.290075 0.867446 0.995064 0 0 1
v 0.290062 0.868933 0.991537 0 0 1
v 0.715332 0.873941 0.0140383 0 0 1
v 0.707176 0.86983 0.992467 0 0 1
v 0.712359 0.869922 0.0139966 0 0 1
v 0.710387 0.873202 0.0139939 0 0 1
v 0.711312 0.876915 0.0140173 0 0 1
v 0.714592 0.878886 0.0140529 0 0 1
v 0.718305 0.877961 0.0140799 0 0 1
v 0.720277 0.874681 0.0140826 0 0 1
v 0.719352 0.870968 0.0140593 0 0 1
v 0.716072 0.868996 0.0140237 0 0 1
v 0.71032 0.868894 0.258604 0 0 1
v 0.708348 0.872174 0.258601 0 0 1
v 0.709273 0.875887 0.258624 0 0 1
v 0.712553 0.877858 0.25866 0 0 1
v 0.716266 0.876933 0.258687 0 0 1
v 0.718238 0.873653 0.25869 0 0 1
v 0.717313 0.86994 0.258666 0 0 1
v 0.714033 0.867969 0.258631 0 0 1
v 0.708281 0.867866 0.503211 0 0 1
v 0.706309 0.871146 0.503208 0 0 1
v 0.707234 0.874859 0.503232 0 0 1
v 0.710514 0.87683 0.503267 0 0 1
v 0.714227 0.875905 0.503294 0 0 1
v 0.716199 0.872625 0.503297 0 0 1
v 0.715274 0.868912 0.503274 0 0 1
v 0.711994 0.866941 0.503238 0 0 1
v 0.706242 0.866838 0.747818 0 0 1
v 0.70427 0.870118 0.747816 0 0 1
v 0.705195 0.873831 0.747839 0 0 1
v 0.708475 0.875802 0.747874 0 0 1
v 0.712188 0.874877 0.747902 0 0 1
v 0.71416 0.871597 0.747904 0 0 1
v 0.713235 0.867884 0.747881 0 0 1
v 0.709955 0.865913 0.747845 0 0 1
v 0.704203 0.86581 0.992425 0 0 1
v 0.702231 0.86909 0.992423 0 0 1
v 0.703156 0.872803 0.992446 0 0 1
v 0.706436 0.874775 0.992482 0 0 1
v 0.710149 0.873849 0.992509 0 0 1
v 0.712121 0.870569 0.992511 0 0 1
v 0.711196 0.866856 0.992488 0 0 1
v 0.707916 0.864885 0.992452 0 0 1
v 0.933785 0.497394 0.00720158 0 0 1
v 0.707926 0.123923 -0.00294218 0 0 1
v 0.937478 0.495232 0.00461485 0 0 1
v 0.934867 0.496872 0.00234797 0 0 1
v 0.931623 0.498818 0.00292427 0 0 1
v 0.929645 0.49993 0.00600616 0 0 1
v 0.930093 0.499557 0.00978831 0 0 1
v 0.932704 0.497917 0.0120552 0 0 1
v 0.935948 0.49597 0.0114789 0 0 1
v 0.937925 0.494858 0.00839699 0 0 1
v 0.881013 0.401864 0.00207891 0 0 1
v 0.878402 0.403504 -0.000187969 0 0 1
v 0.875158 0.405451 0.000388333 0 0 1
v 0.873181 0.406563 0.00347022 0 0 1
v 0.873628 0.406189 0.00725237 0 0 1
v 0.876239 0.404549 0.00951924 0 0 1
v 0.879483 0.402603 0.00894294 0 0 1
v 0.881461 0.40149 0.00586105 0 0 1
v 0.824548 0.308496 -0.000457035 0 0 1
v 0.821937 0.310137 -0.00272391 0 0 1
v 0.818693 0.312083 -0.00214761 0 0 1
v 0.816716 0.313195 0.000934282 0 0 1
v 0.817164 0.312821 0.00471643 0 0 1
v 0.819774 0.311181 0.0069833 0 0 1
v 0.823018 0.309235 0.006407 0 0 1
v 0.824996 0.308123 0.00332511 0 0 1
v 0.768083 0.215129 -0.00299297 0 0 1
v 0.765472 0.216769 -0.00525985 0 0 1
v 0.762228 0.218715 -0.00468355 0 0 1
v 0.760251 0.219827 -0.00160166 0 0 1
v 0.760699 0.219454 0.00218049 0 0 1
v 0.763309 0.217813 0.00444736 0 0 1
v 0.766554 0.215867 0.00387106 0 0 1
v 0.768531 0.214755 0.000789172 0 0 1
v 0.711618 0.121761 -0.00552891 0 0 1
v 0.709008 0.123401 -0.00779579 0 0 1
v 0.705763 0.125347 -0.00721949 0 0 1
v 0.703786 0.12646 -0.0041376 0 0 1
v 0.704234 0.126086 -0.000355452 0 0 1
v 0.706845 0.124446 0.00191142 0 0 1
v 0.710089 0.122499 0.00133512 0 0 1
v 0.712066 0.121387 -0.00174677 0 0 1
v 0.707926 0.123923 -0.00294218 0 0 1
v 0.70541 0.132259 0.996811 0 0 1
v 0.712091 0.12669 -0.00295477 0 0 1
v 0.712827 0.122934 -0.0029216 0 0 1
v 0.710692 0.119759 -0.0029005 0 0 1
v 0.706937 0.119022 -0.00290381 0 0 1
v 0.703761 0.121157 -0.0029296 0 0 1
v 0.703025 0.124912 -0.00296276 0 0 1
v 0.70516 0.128088 -0.00298387 0 0 1
v 0.708915 0.128824 -0.00298056 0 0 1
v 0.711462 0.128773 0.246984 0 0 1
v 0.712198 0.125018 0.247017 0 0 1
v 0.710063 0.121842 0.247038 0 0 1
v 0.706308 0.121106 0.247034 0 0 1
v 0.703132 0.123241 0.247009 0 0 1
v 0.702396 0.126996 0.246976 0 0 1
v 0.704531 0.130172 0.246954 0 0 1
v 0.708286 0.130908 0.246958 0 0 1
v 0.710833 0.130857 0.496922 0 0 1
v 0.711569 0.127102 0.496955 0 0 1
v 0.709434 0.123926 0.496976 0 0 1
v 0.705679 0.12319 0.496973 0 0 1
v 0.702503 0.125325 0.496947 0 0 1
v 0.701767 0.12908 0.496914 0 0 1
v 0.703902 0.132256 0.496893 0 0 1
v 0.707657 0.132992 0.496896 0 0 1
v 0.710204 0.132941 0.74686 0 0 1
v 0.71094 0.129186 0.746893 0 0 1
v 0.708805 0.12601 0.746914 0 0 1
v 0.70505 0.125274 0.746911 0 0 1
v 0.701874 0.127409 0.746885 0 0 1
v 0.701138 0.131164 0.746852 0 0 1
v 0.703273 0.13434 0.746831 0 0 1
v 0.707028 0.135076 0.746834 0 0 1
v 0.709575 0.135025 0.996798 0 0 1
v 0.710311 0.13127 0.996832 0 0 1
v 0.708176 0.128094 0.996853 0 0 1
v 0.704421 0.127358 0.996849 0 0 1
v 0.701245 0.129493 0.996824 0 0 1
v 0.700509 0.133248 0.99679 0 0 1
v 0.702644 0.136424 0.996769 0 0 1
v 0.706399 0.13716 0.996773 0 0 1
v 0.70541 0.132259 0.996811 0 0 1
v 0.924713 0.494721 0.993292 0 0 1
v 0.709082 0.130063 0.999399 0 0 1
v 0.706453 0.131675 1.00167 0 0 1
v 0.703214 0.133629 1.00109 0 0 1
v 0.701261 0.134781 0.998006 0 0 1
v 0.701739 0.134455 0.994223 0 0 1
v 0.704367 0.132843 0.991956 0 0 1
v 0.707606 0.130888 0.992533 0 0 1
v 0.709559 0.129737 0.995616 0 0 1
v 0.763907 0.220678 0.998519 0 0 1
v 0.761279 0.22229 1.00079 0 0 1
v 0.75804 0.224244 1.00021 0 0 1
v 0.756087 0.225396 0.997126 0 0 1
v 0.756565 0.22507 0.993343 0 0 1
v 0.759193 0.223458 0.991076 0 0 1
v 0.762432 0.221504 0.991653 0 0 1
v 0.764385 0.220352 0.994737 0 0 1
v 0.818733 0.311294 0.99764 0 0 1
v 0.816105 0.312906 0.999906 0 0 1
v 0.812865 0.31486 0.999329 0 0 1
v 0.810913 0.316012 0.996246 0 0 1
v 0.81139 0.315686 0.992463 0 0 1
v 0.814018 0.314074 0.990196 0 0 1
v 0.817258 0.312119 0.990774 0 0 1
v 0.81921 0.310968 0.993857 0 0 1
v 0.873558 0.401909 0.99676 0 0 1
v 0.87093 0.403521 0.999027 0 0 1
v 0.867691 0.405475 0.998449 0 0 1
v 0.865738 0.406627 0.995366 0 0 1
v 0.866216 0.406301 0.991583 0 0 1
v 0.868844 0.404689 0.989317 0 0 1
v 0.872083 0.402735 0.989894 0 0 1
v 0.874036 0.401583 0.992977 0 0 1
v 0.928384 0.492525 0.99588 0 0 1
v 0.925756 0.494137 0.998147 0 0 1
v 0.922517 0.496091 0.99757 0 0 1
v 0.920564 0.497243 0.994487 0 0 1
v 0.921042 0.496917 0.990704 0 0 1
v 0.92367 0.495305 0.988437 0 0 1
v 0.926909 0.49335 0.989014 0 0 1
v 0.928862 0.492199 0.992097 0 0 1
v 0.924713 0.494721 0.993292 0 0 1
v 0.933785 0.497394 0.00720158 0 0 1
v 0.929713 0.494721 0.993338 0 0 1
v 0.928248 0.498256 0.993334 0 0 1
v 0.924713 0.499721 0.993305 0 0 1
v 0.921177 0.498256 0.993269 0 0 1
v 0.919713 0.494721 0.993246 0 0 1
v 0.921178 0.491185 0.99325 0 0 1
v 0.924713 0.489721 0.993278 0 0 1
v 0.928248 0.491185 0.993315 0 0 1
v 0.931981 0.495389 0.746815 0 0 1
v 0.930516 0.498925 0.746811 0 0 1
v 0.926981 0.500389 0.746783 0 0 1
v 0.923446 0.498925 0.746746 0 0 1
v 0.921981 0.495389 0.746723 0 0 1
v 0.923446 0.491854 0.746727 0 0 1
v 0.926981 0.490389 0.746756 0 0 1
v 0.930516 0.491854 0.746792 0 0 1
v 0.934249 0.496057 0.500293 0 0 1
v 0.932784 0.499593 0.500289 0 0 1
v 0.929249 0.501057 0.50026 0 0 1
v 0.925714 0.499593 0.500224 0 0 1
v 0.924249 0.496058 0.500201 0 0 1
v 0.925714 0.492522 0.500205 0 0 1
v 0.929249 0.491058 0.500233 0 0 1
v 0.932785 0.492522 0.50027 0 0 1
v 0.936517 0.496726 0.25377 0 0 1
v 0.935053 0.500261 0.253766 0 0 1
v 0.931517 0.501726 0.253738 0 0 1
v 0.927982 0.500261 0.253701 0 0 1
v 0.926518 0.496726 0.253678 0 0 1
v 0.927982 0.49319 0.253682 0 0 1
v 0.931517 0.491726 0.253711 0 0 1
v 0.935053 0.49319 0.253747 0 0 1
v 0.938785 0.497394 0.00724758 0 0 1
v 0.937321 0.50093 0.00724369 0 0 1
v 0.933785 0.502394 0.00721513 0 0 1
v 0.93025 0.50093 0.00717863 0 0 1
v 0.928786 0.497394 0.00715558 0 0 1
v 0.93025 0.493859 0.00715946 0 0 1
v 0.933785 0.492394 0.00718802 0 0 1
v 0.937321 0.493859 0.00722452 0 0 1
v 0.280488 0.129529 -0.00606393 0 0 1
v 0.707926 0.123923 -0.00294218 0 0 1
v 0.280453 0.129595 -0.00106449 0 0 1
v 0.28051 0.133111 -0.00257516 0 0 1
v 0.280554 0.134528 -0.0061295 0 0 1
v 0.28056 0.133018 -0.00964543 0 0 1
v 0.280524 0.129463 -0.0110634 0 0 1
v 0.280467 0.125948 -0.0095527 0 0 1
v 0.280422 0.12453 -0.00599836 0 0 1
v 0.280416 0.126041 -0.00248243 0 0 1
v 0.387312 0.128194 -0.000284058 0 0 1
v 0.387369 0.131709 -0.00179472 0 0 1
v 0.387414 0.133127 -0.00534906 0 0 1
v 0.38742 0.131616 -0.00886499 0 0 1
v 0.387383 0.128062 -0.0102829 0 0 1
v 0.387326 0.124546 -0.00877227 0 0 1
v 0.387282 0.123129 -0.00521793 0 0 1
v 0.387276 0.12464 -0.00170199 0 0 1
v 0.494172 0.126792 0.000496379 0 0 1
v 0.494229 0.130308 -0.00101429 0 0 1
v 0.494273 0.131725 -0.00456863 0 0 1
v 0.494279 0.130215 -0.00808456 0 0 1
v 0.494243 0.12666 -0.00950249 0 0 1
v 0.494186 0.123145 -0.00799183 0 0 1
v 0.494141 0.121727 -0.00443749 0 0 1
v 0.494135 0.123238 -0.000921558 0 0 1
v 0.601031 0.125391 0.00127682 0 0 1
v 0.601088 0.128906 -0.000233849 0 0 1
v 0.601133 0.130324 -0.00378819 0 0 1
v 0.601139 0.128813 -0.00730412 0 0 1
v 0.601102 0.125259 -0.00872206 0 0 1
v 0.601045 0.121743 -0.00721139 0 0 1
v 0.601001 0.120326 -0.00365705 0 0 1
v 0.600995 0.121837 -0.00014112 0 0 1
v 0.70789 0.123989 0.00205725 0 0 1
v 0.707948 0.127505 0.000546588 0 0 1
v 0.707992 0.128923 -0.00300775 0 0 1
v 0.707998 0.127412 -0.00652368 0 0 1
v 0.707962 0.123857 -0.00794162 0 0 1
v 0.707905 0.120342 -0.00643095 0 0 1
v 0.70786 0.118924 -0.00287661 0 0 1
v 0.707854 0.120435 0.000639317 0 0 1
v 0.933785 0.497394 0.00720158 0 0 1
v 0.715332 0.873941 0.0140383 0 0 1
v 0.937507 0.499599 0.00469281 0 0 1
v 0.937975 0.499802 0.00848539 0 0 1
v 0.93599 0.498595 0.0115259 0 0 1
v 0.932713 0.496684 0.0120333 0 0 1
v 0.930064 0.49519 0.00971034 0 0 1
v 0.929595 0.494987 0.00591777 0 0 1
v 0.931581 0.496194 0.00287723 0 0 1
v 0.934858 0.498104 0.00236984 0 0 1
v 0.882893 0.593735 0.00640199 0 0 1
v 0.883362 0.593939 0.0101946 0 0 1
v 0.881376 0.592731 0.0132351 0 0 1
v 0.8781 0.590821 0.0137425 0 0 1
v 0.875451 0.589327 0.0114195 0 0 1
v 0.874982 0.589124 0.00762694 0 0 1
v 0.876968 0.590331 0.00458641 0 0 1
v 0.880245 0.592241 0.00407901 0 0 1
v 0.82828 0.687872 0.00811116 0 0 1
v 0.828749 0.688075 0.0119037 0 0 1
v 0.826763 0.686868 0.0149443 0 0 1
v 0.823486 0.684958 0.0154517 0 0 1
v 0.820838 0.683463 0.0131287 0 0 1
v 0.820369 0.68326 0.00933611 0 0 1
v 0.822354 0.684467 0.00629558 0 0 1
v 0.825631 0.686378 0.00578819 0 0 1
v 0.773667 0.782009 0.00982033 0 0 1
v 0.774135 0.782212 0.0136129 0 0 1
v 0.77215 0.781005 0.0166534 0 0 1
v 0.768873 0.779095 0.0171608 0 0 1
v 0.766224 0.7776 0.0148379 0 0 1
v 0.765755 0.777397 0.0110453 0 0 1
v 0.767741 0.778604 0.00800475 0 0 1
v 0.771018 0.780515 0.00749736 0 0 1
v 0.719053 0.876146 0.0115295 0 0 1
v 0.719522 0.876349 0.0153221 0 0 1
v 0.717536 0.875142 0.0183626 0 0 1
v 0.71426 0.873231 0.01887 0 0 1
v 0.711611 0.871737 0.016547 0 0 1
v 0.711142 0.871534 0.0127545 0 0 1
v 0.713128 0.872741 0.00971392 0 0 1
v 0.716405 0.874651 0.00920653 0 0 1
v 0.285575 0.137812 0.999439 0 0 1
v 0.70541 0.132259 0.996811 0 0 1
v 0.285608 0.137878 1.00444 0 0 1
v 0.285645 0.141394 1.00293 0 0 1
v 0.285641 0.142811 0.999373 0 0 1
v 0.285599 0.141301 0.995857 0 0 1
v 0.285543 0.137747 0.99444 0 0 1
v 0.285506 0.134231 0.995951 0 0 1
v 0.28551 0.132813 0.999505 0 0 1
v 0.285552 0.134324 1.00302 0 0 1
v 0.390566 0.13649 1.00378 0 0 1
v 0.390603 0.140005 1.00227 0 0 1
v 0.3906 0.141423 0.998716 0 0 1
v 0.390558 0.139912 0.9952 0 0 1
v 0.390502 0.136358 0.993783 0 0 1
v 0.390465 0.132842 0.995294 0 0 1
v 0.390468 0.131425 0.998848 0 0 1
v 0.39051 0.132935 1.00236 0 0 1
v 0.495525 0.135101 1.00312 0 0 1
v 0.495562 0.138617 1.00161 0 0 1
v 0.495559 0.140035 0.998059 0 0 1
v 0.495517 0.138524 0.994543 0 0 1
v 0.495461 0.13497 0.993126 0 0 1
v 0.495424 0.131454 0.994637 0 0 1
v 0.495427 0.130036 0.998191 0 0 1
v 0.495469 0.131547 1.00171 0 0 1
v 0.600484 0.133713 1.00247 0 0 1
v 0.600521 0.137228 1.00096 0 0 1
v 0.600517 0.138646 0.997402 0 0 1
v 0.600475 0.137136 0.993886 0 0 1
v 0.600419 0.133581 0.992469 0 0 1
v 0.600382 0.130066 0.99398 0 0 1
v 0.600386 0.128648 0.997534 0 0 1
v 0.600428 0.130159 1.00105 0 0 1
v 0.705442 0.132324 1.00181 0 0 1
v 0.705479 0.13584 1.0003 0 0 1
v 0.705476 0.137258 0.996745 0 0 1
v 0.705434 0.135747 0.993229 0 0 1
v 0.705378 0.132193 0.991812 0 0 1
v 0.705341 0.128677 0.993323 0 0 1
v 0.705345 0.12726 0.996877 0 0 1
v 0.705387 0.12877 1.00039 0 0 1
v 0.707176 0.86983 0.992467 0 0 1
v 0.924713 0.494721 0.993292 0 0 1
v 0.710915 0.872004 0.994975 0 0 1
v 0.711357 0.872252 0.991182 0 0 1
v 0.70935 0.871081 0.988142 0 0 1
v 0.706069 0.869177 0.987635 0 0 1
v 0.703437 0.867656 0.989959 0 0 1
v 0.702995 0.867408 0.993752 0 0 1
v 0.705002 0.868578 0.996792 0 0 1
v 0.708283 0.870482 0.997299 0 0 1
v 0.7653 0.778226 0.995182 0 0 1
v 0.765742 0.778474 0.991388 0 0 1
v 0.763734 0.777304 0.988348 0 0 1
v 0.760454 0.7754 0.987841 0 0 1
v 0.757821 0.773878 0.990165 0 0 1
v 0.757379 0.77363 0.993958 0 0 1
v 0.759386 0.774801 0.996999 0 0 1
v 0.762667 0.776705 0.997505 0 0 1
v 0.819684 0.684449 0.995388 0 0 1
v 0.820126 0.684697 0.991595 0 0 1
v 0.818119 0.683526 0.988554 0 0 1
v 0.814838 0.681623 0.988047 0 0 1
v 0.812205 0.680101 0.990371 0 0 1
v 0.811763 0.679853 0.994164 0 0 1
v 0.81377 0.681024 0.997205 0 0 1
v 0.817051 0.682928 0.997712 0 0 1
v 0.874068 0.590672 0.995594 0 0 1
v 0.87451 0.59092 0.991801 0 0 1
v 0.872503 0.589749 0.98876 0 0 1
v 0.869222 0.587845 0.988254 0 0 1
v 0.866589 0.586324 0.990577 0 0 1
v 0.866147 0.586076 0.99437 0 0 1
v 0.868155 0.587247 0.997411 0 0 1
v 0.871435 0.58915 0.997918 0 0 1
v 0.928452 0.496895 0.9958 0 0 1
v 0.928894 0.497143 0.992007 0 0 1
v 0.926887 0.495972 0.988967 0 0 1
v 0.923606 0.494068 0.98846 0 0 1
v 0.920974 0.492547 0.990784 0 0 1
v 0.920532 0.492299 0.994577 0 0 1
v 0.922539 0.493469 0.997617 0 0 1
v 0.92582 0.495373 0.998124 0 0 1
f 1 3 4
f 2 36 35
f 1 4 5
f 2 37 36
f 1 5 6
f 2 38 37
f 1 6 7
f 2 39 38
f 1 7 8
f 2 40 39
f 1 8 9
f 2 41 40
f 1 9 10
f 2 42 41
f 1 10 3
f 2 35 42
f 11 4 3
f 11 12 4
f 12 5 4
f 12 13 5
f 13 6 5
f 13 14 6
f 14 7 6
f 14 15 7
f 15 8 7
f 15 16 8
f 16 9 8
f 16 17 9
f 17 10 9
f 17 18 10
f 18 3 10
f 18 11 3
f 19 12 11
f 19 20 12
f 20 13 12
f 20 21 13
f 21 14 13
f 21 22 14
f 22 15 14
f 22 23 15
f 23 16 15
f 23 24 16
f 24 17 16
f 24 25 17
f 25 18 17
f 25 26 18
f 26 11 18
f 26 19 11
f 27 20 19
f 27 28 20
f 28 21 20
f 28 29 21
f 29 22 21
f 29 30 22
f 30 23 22
f 30 31 23
f 31 24 23
f 31 32 24
f 32 25 24
f 32 33 25
f 33 26 25
f 33 34 26
f 34 19 26
f 34 27 19
f 35 28 27
f 35 36 28
f 36 29 28
f 36 37 29
f 37 30 29
f 37 38 30
f 38 31 30
f 38 39 31
f 39 32 31
f 39 40 32
f 40 33 32
f 40 41 33
f 41 34 33
f 41 42 34
f 42 27 34
f 42 35 27
f 43 45 46
f 44 78 77
f 43 46 47
f 44 79 78
f 43 47 48
f 44 80 79
f 43 48 49
f 44 81 80
f 43 49 50
f 44 82 81
f 43 50 51
f 44 83 82
f 43 51 52
f 44 84 83
f 43 52 45
f 44 77 84
f 53 46 45
f 53 54 46
f 54 47 46
f 54 55 47
f 55 48 47
f 55 56 48
f 56 49 48
f 56 57 49
f 57 50 49
f 57 58 50
f 58 51 50
f 58 59 51
f 59 52 51
f 59 60 52
f 60 45 52
f 60 53 45
f 61 54 53
f 61 62 54
f 62 55 54
f 62 63 55
f 63 56 55
f 63 64 56
f 64 57 56
f 64 65 57
f 65 58 57
f 65 66 58
f 66 59 58
f 66 67 59
f 67 60 59
f 67 68 60
f 68 53 60
f 68 61 53
f 69 62 61
f 69 70 62
f 70 63 62
f 70 71 63
f 71 64 63
f 71 72 64
f 72 65 64
f 72 73 65
f 73 66 65
f 73 74 66
f 74 67 66
f 74 75 67
f 75 68 67
f 75 76 68
f 76 61 68
f 76 69 61
f 77 70 69
f 77 78 70
f 78 71 70
f 78 79 71
f 79 72 71
f 79 80 72
f 80 73 72
f 80 81 73
f 81 74 73
f 81 82 74
f 82 75 74
f 82 83 75
f 83 76 75
f 83 84 76
f 84 69 76
f 84 77 69
f 85 87 88
f 86 120 119
f 85 88 89
f 86 121 120
f 85 89 90
f 86 122 121
f 85 90 91
f 86 123 122
f 85 91 92
f 86 124 123
f 85 92 93
f 86 125 124
f 85 93 94
f 86 126 125
f 85 94 87
f 86 119 126
f 95 88 87
f 95 96 88
f 96 89 88
f 96 97 89
f 97 90 89
f 97 98 90
f 98 91 90
f 98 99 91
f 99 92 91
f 99 100 92
f 100 93 92
f 100 101 93
f 101 94 93
f 101 102 94
f 102 87 94
f 102 95 87
f 103 96 95
f 103 104 96
f 104 97 96
f 104 105 97
f 105 98 97
f 105 106 98
f 106 99 98
f 106 107 99
f 107 100 99
f 107 108 100
f 108 101 100
f 108 109 101
f 109 102 101
f 109 110 102
f 110 95 102
f 110 103 95
f 111 104 103
f 111 112 104
f 112 105 104
f 112 113 105
f 113 106 105
f 113 114 106
f 114 107 106
f 114 115 107
f 115 108 107
f 115 116 108
f 116 109 108
f 116 117 109
f 117 110 109
f 117 118 110
f 118 103 110
f 118 111 103
f 119 112 111
f 119 120 112
f 120 113 112
f 120 121 113
f 121 114 113
f 121 122 114
f 122 115 114
f 122 123 115
f 123 116 115
f 123 124 116
f 124 117 116
f 124 125 117
f 125 118 117
f 125 126 118
f 126 111 118
f 126 119 111
f 127 129 130
f 128 162 161
f 127 130 131
f 128 163 162
f 127 131 132
f 128 164 163
f 127 132 133
f 128 165 164
f 127 133 134
f 128 166 165
f 127 134 135
f 128 167 166
f 127 135 136
f 128 168 167
f 127 136 129
f 128 161 168
f 137 130 129
f 137 138 130
f 138 131 130
f 138 139 131
f 139 132 131
f 139 140 132
f 140 133 132
f 140 141 133
f 141 134 133
f 141 142 134
f 142 135 134
f 142 143 135
f 143 136 135
f 143 144 136
f 144 129 136
f 144 137 129
f 145 138 137
f 145 146 138
f 146 139 138
f 146 147 139
f 147 140 139
f 147 148 140
f 148 141 140
f 148 149 141
f 149 142 141
f 149 150 142
f 150 143 142
f 150 151 143
f 151 144 143
f 151 152 144
f 152 137 144
f 152 145 137
f 153 146 145
f 153 154 146
f 154 147 146
f 154 155 147
f 155 148 147
f 155 156 148
f 156 149 148
f 156 157 149
f 157 150 149
f 157 158 150
f 158 151 150
f 158 159 151
f 159 152 151
f 159 160 152
f 160 145 152
f 160 153 145
f 161 154 153
f 161 162 154
f 162 155 154
f 162 163 155
f 163 156 155
f 163 164 156
f 164 157 156
f 164 165 157
f 165 158 157
f 165 166 158
f 166 159 158
f 166 167 159
f 167 160 159
f 167 168 160
f 168 153 160
f 168 161 153
f 169 171 172
f 170 204 203
f 169 172 173
f 170 205 204
f 169 173 174
f 170 206 205
f 169 174 175
f 170 207 206
f 169 175 176
f 170 208 207
f 169 176 177
f 170 209 208
f 169 177 178
f 170 210 209
f 169 178 171
f 170 203 210
f 179 172 171
f 179 180 172
f 180 173 172
f 180 181 173
f 181 174 173
f 181 182 174
f 182 175 174
f 182 183 175
f 183 176 175
f 183 184 176
f 184 177 176
f 184 185 177
f 185 178 177
f 185 186 178
f 186 171 178
f 186 179 171
f 187 180 179
f 187 188 180
f 188 181 180
f 188 189 181
f 189 182 181
f 189 190 182
f 190 183 182
f 190 191 183
f 191 184 183
f 191 192 184
f 192 185 184
f 192 193 185
f 193 186 185
f 193 194 186
f 194 179 186
f 194 187 179
f 195 188 187
f 195 196 188
f 196 189 188
f 196 197 189
f 197 190 189
f 197 198 190
f 198 191 190
f 198 199 191
f 199 192 191
f 199 200 192
f 200 193 192
f 200 201 193
f 201 194 193
f 201 202 194
f 202 187 194
f 202 195 187
f 203 196 195
f 203 204 196
f 204 197 196
f 204 205 197
f 205 198 197
f 205 206 198
f 206 199 198
f 206 207 199
f 207 200 199
f 207 208 200
f 208 201 200
f 208 209 201
f 209 202 201
f 209 210 202
f 210 195 202
f 210 203 195
f 211 213 214
f 212 246 245
f 211 214 215
f 212 247 246
f 211 215 216
f 212 248 247
f 211 216 217
f 212 249 248
f 211 217 218
f 212 250 249
f 211 218 219
f 212 251 250
f 211 219 220
f 212 252 251
f 211 220 213
f 212 245 252
f 221 214 213
f 221 222 214
f 222 215 214
f 222 223 215
f 223 216 215
f 223 224 216
f 224 217 216
f 224 225 217
f 225 218 217
f 225 226 218
f 226 219 218
f 226 227 219
f 227 220 219
f 227 228 220
f 228 213 220
f 228 221 213
f 229 222 221
f 229 230 222
f 230 223 222
f 230 231 223
f 231 224 223
f 231 232 224
f 232 225 224
f 232 233 225
f 233 226 225
f 233 234 226
f 234 227 226
f 234 235 227
f 235 228 227
f 235 236 228
f 236 221 228
f 236 229 221
f 237 230 229
f 237 238 230
f 238 231 230
f 238 239 231
f 239 232 231
f 239 240 232
f 240 233 232
f 240 241 233
f 241 234 233
f 241 242 234
f 242 235 234
f 242 243 235
f 243 236 235
f 243 244 236
f 244 229 236
f 244 237 229
f 245 238 237
f 245 246 238
f 246 239 238
f 246 247 239
f 247 240 239
f 247 248 240
f 248 241 240
f 248 249 241
f 249 242 241
f 249 250 242
f 250 243 242
f 250 251 243
f 251 244 243
f 251 252 244
f 252 237 244
f 252 245 237
f 253 255 256
f 254 288 287
f 253 256 257
f 254 289 288
f 253 257 258
f 254 290 289
f 253 258 259
f 254 291 290
f 253 259 260
f 254 292 291
f 253 260 261
f 254 293 292
f 253 261 262
f 254 294 293
f 253 262 255
f 254 287 294
f 263 256 255
f 263 264 256
f 264 257 256
f 264 265 257
f 265 258 257
f 265 266 258
f 266 259 258
f 266 267 259
f 267 260 259
f 267 268 260
f 268 261 260
f 268 269 261
f 269 262 261
f 269 270 262
f 270 255 262
f 270 263 255
f 271 264 263
f 271 272 264
f 272 265 264
f 272 273 265
f 273 266 265
f 273 274 266
f 274 267 266
f 274 275 267
f 275 268 267
f 275 276 268
f 276 269 268
f 276 277 269
f 277 270 269
f 277 278 270
f 278 263 270
f 278 271 263
f 279 272 271
f 279 280 272
f 280 273 272
f 280 281 273
f 281 274 273
f 281 282 274
f 282 275 274
f 282 283 275
f 283 276 275
f 283 284 276
f 284 277 276
f 284 285 277
f 285 278 277
f 285 286 278
f 286 271 278
f 286 279 271
f 287 280 279
f 287 288 280
f 288 281 280
f 288 289 281
f 289 282 281
f 289 290 282
f 290 283 282
f 290 291 283
f 291 284 283
f 291 292 284
f 292 285 284
f 292 293 285
f 293 286 285
f 293 294 286
f 294 279 286
f 294 287 279
f 295 297 298
f 296 330 329
f 295 298 299
f 296 331 330
f 295 299 300
f 296 332 331
f 295 300 301
f 296 333 332
f 295 301 302
f 296 334 333
f 295 302 303
f 296 335 334
f 295 303 304
f 296 336 335
f 295 304 297
f 296 329 336
f 305 298 297
f 305 306 298
f 306 299 298
f 306 307 299
f 307 300 299
f 307 308 300
f 308 301 300
f 308 309 301
f 309 302 301
f 309 310 302
f 310 303 302
f 310 311 303
f 311 304 303
f 311 312 304
f 312 297 304
f 312 305 297
f 313 306 305
f 313 314 306
f 314 307 306
f 314 315 307
f 315 308 307
f 315 316 308
f 316 309 308
f 316 317 309
f 317 310 309
f 317 318 310
f 318 311 310
f 318 319 311
f 319 312 311
f 319 320 312
f 320 305 312
f 320 313 305
f 321 314 313
f 321 322 314
f 322 315 314
f 322 323 315
f 323 316 315
f 323 324 316
f 324 317 316
f 324 325 317
f 325 318 317
f 325 326 318
f 326 319 318
f 326 327 319
f 327 320 319
f 327 328 320
f 328 313 320
f 328 321 313
f 329 322 321
f 329 330 322
f 330 323 322
f 330 331 323
f 331 324 323
f 331 332 324
f 332 325 324
f 332 333 325
f 333 326 325
f 333 334 326
f 334 327 326
f 334 335 327
f 335 328 327
f 335 336 328
f 336 321 328
f 336 329 321
f 337 339 340
f 338 372 371
f 337 340 341
f 338 373 372
f 337 341 342
f 338 374 373
f 337 342 343
f 338 375 374
f 337 343 344
f 338 376 375
f 337 344 345
f 338 377 376
f 337 345 346
f 338 378 377
f 337 346 339
f 338 371 378
f 347 340 339
f 347 348 340
f 348 341 340
f 348 349 341
f 349 342 341
f 349 350 342
f 350 343 342
f 350 351 343
f 351 344 343
f 351 352 344
f 352 345 344
f 352 353 345
f 353 346 345
f 353 354 346
f 354 339 346
f 354 347 339
f 355 348 347
f 355 356 348
f 356 349 348
f 356 357 349
f 357 350 349
f 357 358 350
f 358 351 350
f 358 359 351
f 359 352 351
f 359 360 352
f 360 353 352
f 360 361 353
f 361 354 353
f 361 362 354
f 362 347 354
f 362 355 347
f 363 356 355
f 363 364 356
f 364 357 356
f 364 365 357
f 365 358 357
f 365 366 358
f 366 359 358
f 366 367 359
f 367 360 359
f 367 368 360
f 368 361 360
f 368 369 361
f 369 362 361
f 369 370 362
f 370 355 362
f 370 363 355
f 371 364 363
f 371 372 364
f 372 365 364
f 372 373 365
f 373 366 365
f 373 374 366
f 374 367 366
f 374 375 367
f 375 368 367
f 375 376 368
f 376 369 368
f 376 377 369
f 377 370 369
f 377 378 370
f 378 363 370
f 378 371 363
f 379 381 382
f 380 414 413
f 379 382 383
f 380 415 414
f 379 383 384
f 380 416 415
f 379 384 385
f 380 417 416
f 379 385 386
f 380 418 417
f 379 386 387
f 380 419 418
f 379 387 388
f 380 420 419
f 379 388 381
f 380 413 420
f 389 382 381
f 389 390 382
f 390 383 382
f 390 391 383
f 391 384 383
f 391 392 384
f 392 385 384
f 392 393 385
f 393 386 385
f 393 394 386
f 394 387 386
f 394 395 387
f 395 388 387
f 395 396 388
f 396 381 388
f 396 389 381
f 397 390 389
f 397 398 390
f 398 391 390
f 398 399 391
f 399 392 391
f 399 400 392
f 400 393 392
f 400 401 393
f 401 394 393
f 401 402 394
f 402 395 394
f 402 403 395
f 403 396 395
f 403 404 396
f 404 389 396
f 404 397 389
f 405 398 397
f 405 406 398
f 406 399 398
f 406 407 399
f 407 400 399
f 407 408 400
f 408 401 400
f 408 409 401
f 409 402 401
f 409 410 402
f 410 403 402
f 410 411 403
f 411 404 403
f 411 412 404
f 412 397 404
f 412 405 397
f 413 406 405
f 413 414 406
f 414 407 406
f 414 415 407
f 415 408 407
f 415 416 408
f 416 409 408
f 416 417 409
f 417 410 409
f 417 418 410
f 418 411 410
f 418 419 411
f 419 412 411
f 419 420 412
f 420 405 412
f 420 413 405
f 421 423 424
f 422 456 455
f 421 424 425
f 422 457 456
f 421 425 426
f 422 458 457
f 421 426 427
f 422 459 458
f 421 427 428
f 422 460 459
f 421 428 429
f 422 461 460
f 421 429 430
f 422 462 461
f 421 430 423
f 422 455 462
f 431 424 423
f 431 432 424
f 432 425 424
f 432 433 425
f 433 426 425
f 433 434 426
f 434 427 426
f 434 435 427
f 435 428 427
f 435 436 428
f 436 429 428
f 436 437 429
f 437 430 429
f 437 438 430
f 438 423 430
f 438 431 423
f 439 432 431
f 439 440 432
f 440 433 432
f 440 441 433
f 441 434 433
f 441 442 434
f 442 435 434
f 442 443 435
f 443 436 435
f 443 444 436
f 444 437 436
f 444 445 437
f 445 438 437
f 445 446 438
f 446 431 438
f 446 439 431
f 447 440 439
f 447 448 440
f 448 441 440
f 448 449 441
f 449 442 441
f 449 450 442
f 450 443 442
f 450 451 443
f 451 444 443
f 451 452 444
f 452 445 444
f 452 453 445
f 453 446 445
f 453 454 446
f 454 439 446
f 454 447 439
f 455 448 447
f 455 456 448
f 456 449 448
f 456 457 449
f 457 450 449
f 457 458 450
f 458 451 450
f 458 459 451
f 459 452 451
f 459 460 452
f 460 453 452
f 460 461 453
f 461 454 453
f 461 462 454
f 462 447 454
f 462 455 447
f 463 465 466
f 464 498 497
f 463 466 467
f 464 499 498
f 463 467 468
f 464 500 499
f 463 468 469
f 464 501 500
f 463 469 470
f 464 502 501
f 463 470 471
f 464 503 502
f 463 471 472
f 464 504 503
f 463 472 465
f 464 497 504
f 473 466 465
f 473 474 466
f 474 467 466
f 474 475 467
f 475 468 467
f 475 476 468
f 476 469 468
f 476 477 469
f 477 470 469
f 477 478 470
f 478 471 470
f 478 479 471
f 479 472 471
f 479 480 472
f 480 465 472
f 480 473 465
f 481 474 473
f 481 482 474
f 482 475 474
f 482 483 475
f 483 476 475
f 483 484 476
f 484 477 476
f 484 485 477
f 485 478 477
f 485 486 478
f 486 479 478
f 486 487 479
f 487 480 479
f 487 488 480
f 488 473 480
f 488 481 473
f 489 482 481
f 489 490 482
f 490 483 482
f 490 491 483
f 491 484 483
f 491 492 484
f 492 485 484
f 492 493 485
f 493 486 485
f 493 494 486
f 494 487 486
f 494 495 487
f 495 488 487
f 495 496 488
f 496 481 488
f 496 489 481
f 497 490 489
f 497 498 490
f 498 491 490
f 498 499 491
f 499 492 491
f 499 500 492
f 500 493 492
f 500 501 493
f 501 494 493
f 501 502 494
f 502 495 494
f 502 503 495
f 503 496 495
f 503 504 496
f 504 489 496
f 504 497 489
f 505 507 508
f 506 540 539
f 505 508 509
f 506 541 540
f 505 509 510
f 506 542 541
f 505 510 511
f 506 543 542
f 505 511 512
f 506 544 543
f 505 512 513
f 506 545 544
f 505 513 514
f 506 546 545
f 505 514 507
f 506 539 546
f 515 508 507
f 515 516 508
f 516 509 508
f 516 517 509
f 517 510 509
f 517 518 510
f 518 511 510
f 518 519 511
f 519 512 511
f 519 520 512
f 520 513 512
f 520 521 513
f 521 514 513
f 521 522 514
f 522 507 514
f 522 515 507
f 523 516 515
f 523 524 516
f 524 517 516
f 524 525 517
f 525 518 517
f 525 526 518
f 526 519 518
f 526 527 519
f 527 520 519
f 527 528 520
f 528 521 520
f 528 529 521
f 529 522 521
f 529 530 522
f 530 515 522
f 530 523 515
f 531 524 523
f 531 532 524
f 532 525 524
f 532 533 525
f 533 526 525
f 533 534 526
f 534 527 526
f 534 535 527
f 535 528 527
f 535 536 528
f 536 529 528
f 536 537 529
f 537 530 529
f 537 538 530
f 538 523 530
f 538 531 523
f 539 532 531
f 539 540 532
f 540 533 532
f 540 541 533
f 541 534 533
f 541 542 534
f 542 535 534
f 542 543 535
f 543 536 535
f 543 544 536
f 544 537 536
f 544 545 537
f 545 538 537
f 545 546 538
f 546 531 538
f 546 539 531
f 547 549 550
f 548 582 581
f 547 550 551
f 548 583 582
f 547 551 552
f 548 584 583
f 547 552 553
f 548 585 584
f 547 553 554
f 548 586 585
f 547 554 555
f 548 587 586
f 547 555 556
f 548 588 587
f 547 556 549
f 548 581 588
f 557 550 549
f 557 558 550
f 558 551 550
f 558 559 551
f 559 552 551
f 559 560 552
f 560 553 552
f 560 561 553
f 561 554 553
f 561 562 554
f 562 555 554
f 562 563 555
f 563 556 555
f 563 564 556
f 564 549 556
f 564 557 549
f 565 558 557
f 565 566 558
f 566 559 558
f 566 567 559
f 567 560 559
f 567 568 560
f 568 561 560
f 568 569 561
f 569 562 561
f 569 570 562
f 570 563 562
f 570 571 563
f 571 564 563
f 571 572 564
f 572 557 564
f 572 565 557
f 573 566 565
f 573 574 566
f 574 567 566
f 574 575 567
f 575 568 567
f 575 576 568
f 576 569 568
f 576 577 569
f 577 570 569
f 577 578 570
f 578 571 570
f 578 579 571
f 579 572 571
f 579 580 572
f 580 565 572
f 580 573 565
f 581 574 573
f 581 582 574
f 582 575 574
f 582 583 575
f 583 576 575
f 583 584 576
f 584 577 576
f 584 585 577
f 585 578 577
f 585 586 578
f 586 579 578
f 586 587 579
f 587 580 579
f 587 588 580
f 588 573 580
f 588 581 573
f 589 591 592
f 590 624 623
f 589 592 593
f 590 625 624
f 589 593 594
f 590 626 625
f 589 594 595
f 590 627 626
f 589 595 596
f 590 628 627
f 589 596 597
f 590 629 628
f 589 597 598
f 590 630 629
f 589 598 591
f 590 623 630
f 599 592 591
f 599 600 592
f 600 593 592
f 600 601 593
f 601 594 593
f 601 602 594
f 602 595 594
f 602 603 595
f 603 596 595
f 603 604 596
f 604 597 596
f 604 605 597
f 605 598 597
f 605 606 598
f 606 591 598
f 606 599 591
f 607 600 599
f 607 608 600
f 608 601 600
f 608 609 601
f 609 602 601
f 609 610 602
f 610 603 602
f 610 611 603
f 611 604 603
f 611 612 604
f 612 605 604
f 612 613 605
f 613 606 605
f 613 614 606
f 614 599 606
f 614 607 599
f 615 608 607
f 615 616 608
f 616 609 608
f 616 617 609
f 617 610 609
f 617 618 610
f 618 611 610
f 618 619 611
f 619 612 611
f 619 620 612
f 620 613 612
f 620 621 613
f 621 614 613
f 621 622 614
f 622 607 614
f 622 615 607
f 623 616 615
f 623 624 616
f 624 617 616
f 624 625 617
f 625 618 617
f 625 626 618
f 626 619 618
f 626 627 619
f 627 620 619
f 627 628 620
f 628 621 620
f 628 629 621
f 629 622 621
f 629 630 622
f 630 615 622
f 630 623 615
f 631 633 634
f 632 666 665
f 631 634 635
f 632 667 666
f 631 635 636
f 632 668 667
f 631 636 637
f 632 669 668
f 631 637 638
f 632 670 669
f 631 638 639
f 632 671 670
f 631 639 640
f 632 672 671
f 631 640 633
f 632 665 672
f 641 634 633
f 641 642 634
f 642 635 634
f 642 643 635
f 643 636 635
f 643 644 636
f 644 637 636
f 644 645 637
f 645 638 637
f 645 646 638
f 646 639 638
f 646 647 639
f 647 640 639
f 647 648 640
f 648 633 640
f 648 641 633
f 649 642 641
f 649 650 642
f 650 643 642
f 650 651 643
f 651 644 643
f 651 652 644
f 652 645 644
f 652 653 645
f 653 646 645
f 653 654 646
f 654 647 646
f 654 655 647
f 655 648 647
f 655 656 648
f 656 641 648
f 656 649 641
f 657 650 649
f 657 658 650
f 658 651 650
f 658 659 651
f 659 652 651
f 659 660 652
f 660 653 652
f 660 661 653
f 661 654 653
f 661 662 654
f 662 655 654
f 662 663 655
f 663 656 655
f 663 664 656
f 664 649 656
f 664 657 649
f 665 658 657
f 665 666 658
f 666 659 658
f 666 667 659
f 667 660 659
f 667 668 660
f 668 661 660
f 668 669 661
f 669 662 661
f 669 670 662
f 670 663 662
f 670 671 663
f 671 664 663
f 671 672 664
f 672 657 664
f 672 665 657
f 673 675 676
f 674 708 707
f 673 676 677
f 674 709 708
f 673 677 678
f 674 710 709
f 673 678 679
f 674 711 710
f 673 679 680
f 674 712 711
f 673 680 681
f 674 713 712
f 673 681 682
f 674 714 713
f 673 682 675
f 674 707 714
f 683 676 675
f 683 684 676
f 684 677 676
f 684 685 677
f 685 678 677
f 685 686 678
f 686 679 678
f 686 687 679
f 687 680 679
f 687 688 680
f 688 681 680
f 688 689 681
f 689 682 681
f 689 690 682
f 690 675 682
f 690 683 675
f 691 684 683
f 691 692 684
f 692 685 684
f 692 693 685
f 693 686 685
f 693 694 686
f 694 687 686
f 694 695 687
f 695 688 687
f 695 696 688
f 696 689 688
f 696 697 689
f 697 690 689
f 697 698 690
f 698 683 690
f 698 691 683
f 699 692 691
f 699 700 692
f 700 693 692
f 700 701 693
f 701 694 693
f 701 702 694
f 702 695 694
f 702 703 695
f 703 696 695
f 703 704 696
f 704 697 696
f 704 705 697
f 705 698 697
f 705 706 698
f 706 691 698
f 706 699 691
f 707 700 699
f 707 708 700
f 708 701 700
f 708 709 701
f 709 702 701
f 709 710 702
f 710 703 702
f 710 711 703
f 711 704 703
f 711 712 704
f 712 705 704
f 712 713 705
f 713 706 705
f 713 714 706
f 714 699 706
f 714 707 699
f 715 717 718
f 716 750 749
f 715 718 719
f 716 751 750
f 715 719 720
f 716 752 751
f 715 720 721
f 716 753 752
f 715 721 722
f 716 754 753
f 715 722 723
f 716 755 754
f 715 723 724
f 716 756 755
f 715 724 717
f 716 749 756
f 725 718 717
f 725 726 718
f 726 719 718
f 726 727 719
f 727 720 719
f 727 728 720
f 728 721 720
f 728 729 721
f 729 722 721
f 729 730 722
f 730 723 722
f 730 731 723
f 731 724 723
f 731 732 724
f 732 717 724
f 732 725 717
f 733 726 725
f 733 734 726
f 734 727 726
f 734 735 727
f 735 728 727
f 735 736 728
f 736 729 728
f 736 737 729
f 737 730 729
f 737 738 730
f 738 731 730
f 738 739 731
f 739 732 731
f 739 740 732
f 740 725 732
f 740 733 725
f 741 734 733
f 741 742 734
f 742 735 734
f 742 743 735
f 743 736 735
f 743 744 736
f 744 737 736
f 744 745 737
f 745 738 737
f 745 746 738
f 746 739 738
f 746 747 739
f 747 740 739
f 747 748 740
f 748 733 740
f 748 741 733
f 749 742 741
f 749 750 742
f 750 743 742
f 750 751 743
f 751 744 743
f 751 752 744
f 752 745 744
f 752 753 745
f 753 746 745
f 753 754 746
f 754 747 746
f 754 755 747
f 755 748 747
f 755 756 748
f 756 741 748
f 756 749 741
